<svg width="18" height="18" viewBox="0 0 18 18" fill="none" xmlns="http://www.w3.org/2000/svg">
<path d="M7 0H1C0.734784 0 0.48043 0.105357 0.292893 0.292893C0.105357 0.48043 0 0.734784 0 1V7C0 7.26522 0.105357 7.51957 0.292893 7.70711C0.48043 7.89464 0.734784 8 1 8H7C7.26522 8 7.51957 7.89464 7.70711 7.70711C7.89464 7.51957 8 7.26522 8 7V1C8 0.734784 7.89464 0.48043 7.70711 0.292893C7.51957 0.105357 7.26522 0 7 0ZM17 0H11C10.7348 0 10.4804 0.105357 10.2929 0.292893C10.1054 0.48043 10 0.734784 10 1V7C10 7.26522 10.1054 7.51957 10.2929 7.70711C10.4804 7.89464 10.7348 8 11 8H17C17.2652 8 17.5196 7.89464 17.7071 7.70711C17.8946 7.51957 18 7.26522 18 7V1C18 0.734784 17.8946 0.48043 17.7071 0.292893C17.5196 0.105357 17.2652 0 17 0ZM7 10H1C0.734784 10 0.48043 10.1054 0.292893 10.2929C0.105357 10.4804 0 10.7348 0 11V17C0 17.2652 0.105357 17.5196 0.292893 17.7071C0.48043 17.8946 0.734784 18 1 18H7C7.26522 18 7.51957 17.8946 7.70711 17.7071C7.89464 17.5196 8 17.2652 8 17V11C8 10.7348 7.89464 10.4804 7.70711 10.2929C7.51957 10.1054 7.26522 10 7 10ZM14 10C14.7826 10 15.548 10.2296 16.2014 10.6603C16.8549 11.091 17.3676 11.7039 17.6761 12.4232C17.9846 13.1424 18.0753 13.9363 17.9371 14.7066C17.7988 15.4769 17.4376 16.1898 16.8983 16.7568C16.3589 17.3239 15.665 17.7202 14.9026 17.8968C14.1402 18.0734 13.3427 18.0225 12.6089 17.7503C11.8752 17.4782 11.2374 16.9967 10.7745 16.3657C10.3117 15.7346 10.0441 14.9816 10.005 14.2L10 14L10.005 13.8C10.0563 12.775 10.4996 11.809 11.2432 11.1017C11.9868 10.3944 12.9738 10 14 10Z" fill="white"/>
</svg>
