<svg width="24" height="24" viewBox="0 0 24 24" fill="none" xmlns="http://www.w3.org/2000/svg">
<path d="M4.28564 10.2857H19.7142M7.71422 5.14286V6M6.85707 21.4286V23.1429M17.1428 21.4286V23.1429M17.9999 0.857147H5.99993C5.54527 0.857147 5.10924 1.03776 4.78775 1.35925C4.46626 1.68074 4.28564 2.11678 4.28564 2.57143V19.7143C4.28564 20.1689 4.46626 20.605 4.78775 20.9265C5.10924 21.248 5.54527 21.4286 5.99993 21.4286H17.9999C18.4546 21.4286 18.8906 21.248 19.2121 20.9265C19.5336 20.605 19.7142 20.1689 19.7142 19.7143V2.57143C19.7142 2.11678 19.5336 1.68074 19.2121 1.35925C18.8906 1.03776 18.4546 0.857147 17.9999 0.857147Z" stroke="#3D3D3D" stroke-width="1.2" stroke-linecap="round" stroke-linejoin="round"/>
</svg>
