<svg width="24" height="24" viewBox="0 0 24 24" fill="none" xmlns="http://www.w3.org/2000/svg">
<path d="M3 15V14.5M21 15V12C21 10.8181 20.7672 9.64778 20.3149 8.55585C19.8626 7.46392 19.1997 6.47177 18.364 5.63604C17.5282 4.80031 16.5361 4.13738 15.4442 3.68508C14.3522 3.23279 13.1819 3 12 3C10.8181 3 9.64778 3.23279 8.55585 3.68508C7.46392 4.13738 6.47177 4.80031 5.63604 5.63604C4.80031 6.47177 4.13738 7.46392 3.68508 8.55585C3.23279 9.64778 3 10.8181 3 12V15H2.5M3 14.5H2.5V15M7.5 16C7.5 15.6022 7.34196 15.2206 7.06066 14.9393C6.77936 14.658 6.39782 14.5 6 14.5H3M3 14.5V15.5H6M2.5 15H3.5V19M5 21.5C4.33696 21.5 3.70107 21.2366 3.23223 20.7678C2.76339 20.2989 2.5 19.663 2.5 19V15M6 15.5V14.5M6 15.5C6.13261 15.5 6.25979 15.5527 6.35355 15.6464C6.44732 15.7402 6.5 15.8674 6.5 16M6.5 16V19M6.5 16H7.5M6.5 19H7.5M6.5 19C6.5 19.3978 6.34196 19.7794 6.06066 20.0607C5.77936 20.342 5.39782 20.5 5 20.5M5 21.5C5.66304 21.5 6.29893 21.2366 6.76777 20.7678C7.23661 20.2989 7.5 19.663 7.5 19V16M3.5 19H2.5M3.5 19C3.5 19.3978 3.65804 19.7794 3.93934 20.0607C4.22064 20.342 4.60218 20.5 5 20.5M5 20.5V21.5M21 14.5V15H21.5M21.5 15V14.5H21M16.5 16V19C16.5 19.663 16.7634 20.2989 17.2322 20.7678C17.7011 21.2366 18.337 21.5 19 21.5C19.663 21.5 20.2989 21.2366 20.7678 20.7678C21.2366 20.2989 21.5 19.663 21.5 19V15M21.5 15H20.5V19M21 14.5V15.5H18M16.5 16C16.5 15.6022 16.658 15.2206 16.9393 14.9393C17.2206 14.658 17.6022 14.5 18 14.5H21M18 15.5V14.5M18 15.5C17.8674 15.5 17.7402 15.5527 17.6464 15.6464C17.5527 15.7402 17.5 15.8674 17.5 16M20.5 19H21.5M20.5 19C20.5 19.3978 20.342 19.7794 20.0607 20.0607C19.7794 20.342 19.3978 20.5 19 20.5M17.5 19V16M17.5 19H16.5M17.5 19C17.5 19.3978 17.658 19.7794 17.9393 20.0607C18.2206 20.342 18.6022 20.5 19 20.5M17.5 16H16.5M19 20.5V21.5" stroke="#3D3D3D" stroke-linecap="round"/>
</svg>
