<svg width="24" height="24" viewBox="0 0 24 24" fill="none" xmlns="http://www.w3.org/2000/svg">
<path d="M7.80804 21C7.52738 21 7.29038 20.9033 7.09704 20.71C6.90371 20.5173 6.80704 20.2806 6.80704 20V19C6.80704 18.332 6.97171 17.7 7.30104 17.104C7.63038 16.508 8.10838 16.0106 8.73504 15.612L7.97504 10.692H6.38504C5.92504 10.692 5.54071 10.538 5.23204 10.23C4.92338 9.92198 4.76904 9.53765 4.76904 9.07698V5.61598C4.76904 5.16798 4.92638 4.78665 5.24104 4.47198C5.55638 4.15731 5.93771 3.99998 6.38504 3.99998H10V3.22998H14V3.99998H17.052L15.266 15.612C15.8927 16.01 16.3704 16.5073 16.699 17.104C17.0277 17.7006 17.192 18.3326 17.192 19V20C17.192 20.2806 17.0957 20.5173 16.903 20.71C16.7097 20.9033 16.473 21 16.193 21H7.80804ZM7.82804 9.69198L7.09504 4.99998H6.38504C6.23171 4.99998 6.09071 5.06398 5.96204 5.19198C5.83338 5.31998 5.76938 5.46098 5.77004 5.61498V9.07698C5.77004 9.23031 5.83404 9.37131 5.96204 9.49998C6.09004 9.62865 6.23104 9.69265 6.38504 9.69198H7.82804ZM12.549 18.549C12.6957 18.4023 12.769 18.2193 12.769 18C12.769 17.7806 12.6957 17.5976 12.549 17.451C12.4024 17.3043 12.2194 17.231 12 17.231C11.7807 17.231 11.5977 17.3043 11.451 17.451C11.3044 17.5976 11.231 17.7806 11.231 18C11.231 18.2193 11.3044 18.4023 11.451 18.549C11.5977 18.6956 11.7807 18.769 12 18.769C12.2194 18.769 12.4024 18.6956 12.549 18.549ZM9.66204 15H14.339L15.88 4.99998H8.11904L9.66204 15ZM7.80804 20H16.192V19C16.192 18.1666 15.9004 17.4583 15.317 16.875C14.7337 16.2916 14.0254 16 13.192 16H10.808C9.97471 16 9.26638 16.2916 8.68304 16.875C8.09971 17.4583 7.80804 18.1666 7.80804 19V20Z" fill="#3D3D3D"/>
</svg>
