<svg width="16" height="16" viewBox="0 0 16 16" fill="none" xmlns="http://www.w3.org/2000/svg">
<path d="M0.830357 0.0347005C0.752179 0.00750375 0.669378 -0.0038934 0.58676 0.00117095C0.504142 0.00623529 0.423353 0.0276601 0.349083 0.0642017C0.274813 0.100743 0.20854 0.151674 0.154114 0.214036C0.099687 0.276399 0.05819 0.348952 0.0320314 0.427483C0.00587283 0.506014 -0.00442619 0.588959 0.00173238 0.671502C0.00789095 0.754046 0.0303844 0.834544 0.0679068 0.908323C0.105429 0.982103 0.157233 1.04769 0.220312 1.10129C0.28339 1.15489 0.356486 1.19542 0.435357 1.22053L0.65619 1.2947C1.21952 1.4822 1.59286 1.60803 1.86702 1.73553C2.12702 1.85637 2.23952 1.95387 2.31119 2.05387C2.38286 2.15387 2.44036 2.29053 2.47286 2.57553C2.50702 2.87637 2.50786 3.2697 2.50786 3.86387V6.09053C2.50786 7.2297 2.50786 8.14887 2.60536 8.87137C2.70536 9.62137 2.92202 10.253 3.42369 10.7547C3.92452 11.2564 4.55702 11.4714 5.30702 11.5722C6.02869 11.6697 6.94786 11.6697 8.08702 11.6697H13.9662C14.132 11.6697 14.2909 11.6039 14.4081 11.4866C14.5253 11.3694 14.5912 11.2105 14.5912 11.0447C14.5912 10.8789 14.5253 10.72 14.4081 10.6028C14.2909 10.4855 14.132 10.4197 13.9662 10.4197H8.13286C6.93702 10.4197 6.10286 10.418 5.47286 10.3339C4.86202 10.2514 4.53786 10.1005 4.30702 9.87053C4.11119 9.6747 3.97369 9.41137 3.88536 8.96137H12.3187C13.1179 8.96137 13.517 8.96137 13.8304 8.7547C14.1437 8.54803 14.3012 8.18137 14.6162 7.44637L14.9729 6.61303C15.6479 5.03803 15.9854 4.25137 15.6145 3.6897C15.2437 3.12803 14.3879 3.12803 12.6745 3.12803H3.75369C3.75137 2.89616 3.7383 2.66453 3.71452 2.43387C3.66869 2.0297 3.56786 1.65887 3.32536 1.32303C3.08286 0.986367 2.76286 0.773034 2.39452 0.602201C2.04702 0.440534 1.60619 0.293867 1.08452 0.118867L0.830357 0.0347005ZM5.21619 13.128C5.54771 13.128 5.86565 13.2597 6.10007 13.4942C6.33449 13.7286 6.46619 14.0465 6.46619 14.378C6.46619 14.7096 6.33449 15.0275 6.10007 15.2619C5.86565 15.4963 5.54771 15.628 5.21619 15.628C4.88467 15.628 4.56673 15.4963 4.33231 15.2619C4.09789 15.0275 3.96619 14.7096 3.96619 14.378C3.96619 14.0465 4.09789 13.7286 4.33231 13.4942C4.56673 13.2597 4.88467 13.128 5.21619 13.128ZM12.7162 13.128C13.0477 13.128 13.3657 13.2597 13.6001 13.4942C13.8345 13.7286 13.9662 14.0465 13.9662 14.378C13.9662 14.7096 13.8345 15.0275 13.6001 15.2619C13.3657 15.4963 13.0477 15.628 12.7162 15.628C12.3847 15.628 12.0667 15.4963 11.8323 15.2619C11.5979 15.0275 11.4662 14.7096 11.4662 14.378C11.4662 14.0465 11.5979 13.7286 11.8323 13.4942C12.0667 13.2597 12.3847 13.128 12.7162 13.128Z" fill="#3D3D3D"/>
</svg>
