<svg width="25" height="27" viewBox="0 0 25 27" fill="none" xmlns="http://www.w3.org/2000/svg">
<path d="M0.650391 0.650146L0.987698 0.774604C2.66787 1.39689 3.50796 1.70804 3.98783 2.44913C4.46769 3.19022 4.46897 4.17456 4.46897 6.14185V9.84305C4.46897 13.8427 4.46897 15.8439 5.58781 17.0856C6.70538 18.3288 8.50647 18.3288 12.1061 18.3288H22.289" stroke="#3D3D3D" stroke-width="1.3" stroke-linecap="round"/>
<path d="M4.46973 4.89331H19.044C21.6597 4.89331 22.9682 4.89331 23.5346 5.84654C24.0998 6.80119 23.5855 8.13628 22.5545 10.8079L22.0084 12.2222C21.5273 13.4696 21.2867 14.0919 20.8094 14.4426C20.3308 14.7934 19.7198 14.7934 18.4992 14.7934H4.46973M7.65187 21.8648C8.15825 21.8648 8.64388 22.0883 9.00195 22.4862C9.36001 22.884 9.56116 23.4236 9.56116 23.9863C9.56116 24.5489 9.36001 25.0885 9.00195 25.4863C8.64388 25.8842 8.15825 26.1077 7.65187 26.1077C7.1455 26.1077 6.65986 25.8842 6.3018 25.4863C5.94374 25.0885 5.74259 24.5489 5.74259 23.9863C5.74259 23.4236 5.94374 22.884 6.3018 22.4862C6.65986 22.0883 7.1455 21.8648 7.65187 21.8648ZM19.1076 21.8648C19.614 21.8648 20.0996 22.0883 20.4577 22.4862C20.8157 22.884 21.0169 23.4236 21.0169 23.9863C21.0169 24.5489 20.8157 25.0885 20.4577 25.4863C20.0996 25.8842 19.614 26.1077 19.1076 26.1077C18.6012 26.1077 18.1156 25.8842 17.7575 25.4863C17.3995 25.0885 17.1983 24.5489 17.1983 23.9863C17.1983 23.4236 17.3995 22.884 17.7575 22.4862C18.1156 22.0883 18.6012 21.8648 19.1076 21.8648Z" stroke="#3D3D3D" stroke-width="1.3"/>
</svg>
