<svg width="24" height="24" viewBox="0 0 24 24" fill="none" xmlns="http://www.w3.org/2000/svg">
<mask id="path-1-inside-1_1125_21516" fill="white">
<path d="M12.5819 23.2599L12.5939 23.2579C12.6019 23.2593 12.6073 23.2653 12.6099 23.2759L12.6269 23.7029L12.6229 23.7199L12.6109 23.7359L12.5069 23.8099L12.4949 23.8139L12.4799 23.8099L12.3759 23.7359L12.3659 23.7229L12.3609 23.7029L12.3779 23.2749L12.3819 23.2649C12.3873 23.2583 12.3953 23.2563 12.4059 23.2589L12.4769 23.2949L12.4909 23.2989L12.5109 23.2949L12.5819 23.2599Z"/>
<path d="M12.8439 23.1469L12.8579 23.1449C12.8679 23.1469 12.8746 23.1543 12.8779 23.1669L12.9119 23.7809L12.9079 23.7949C12.9013 23.8036 12.8916 23.8063 12.8789 23.8029L12.6779 23.7109L12.6699 23.7029L12.6649 23.6909L12.6469 23.2609L12.6499 23.2499L12.6599 23.2399L12.8439 23.1469Z"/>
<path d="M12.1282 23.1445C12.1333 23.1434 12.1385 23.1443 12.1429 23.1469L12.3269 23.2389L12.3369 23.2489L12.3399 23.2609L12.3219 23.6909L12.3189 23.7019L12.3089 23.7099L12.1079 23.8029L12.0929 23.8049C12.0823 23.8009 12.0766 23.7929 12.0759 23.7809L12.1099 23.1669L12.1159 23.1529C12.1188 23.1487 12.1232 23.1456 12.1282 23.1445Z"/>
</mask>
<path d="M12.5939 23.2579L12.6761 22.7647L12.5939 22.751L12.5117 22.7647L12.5939 23.2579ZM12.5819 23.2599L12.4997 22.7667L12.427 22.7789L12.3609 22.8115L12.5819 23.2599ZM12.5109 23.2949L12.609 23.7852L12.6732 23.7724L12.732 23.7434L12.5109 23.2949ZM12.4909 23.2989L12.3536 23.7797L12.4701 23.813L12.589 23.7892L12.4909 23.2989ZM12.4769 23.2949L12.2508 23.7409L12.2935 23.7625L12.3396 23.7757L12.4769 23.2949ZM12.4059 23.2589L12.632 22.813L12.5818 22.7875L12.5272 22.7739L12.4059 23.2589ZM12.3819 23.2649L11.9915 22.9526L11.9452 23.0105L11.9177 23.0793L12.3819 23.2649ZM12.3779 23.2749L11.9137 23.0893L11.8817 23.1691L11.8783 23.2551L12.3779 23.2749ZM12.3609 23.7029L11.8613 23.6831L11.8585 23.7547L11.8759 23.8242L12.3609 23.7029ZM12.3659 23.7229L11.8809 23.8442L11.9061 23.9452L11.9696 24.0278L12.3659 23.7229ZM12.3759 23.7359L11.9796 24.0408L12.0252 24.1L12.0861 24.1433L12.3759 23.7359ZM12.4799 23.8099L12.19 24.2173L12.2637 24.2698L12.3511 24.2931L12.4799 23.8099ZM12.4949 23.8139L12.3661 24.2971L12.5109 24.3357L12.653 24.2883L12.4949 23.8139ZM12.5069 23.8099L12.665 24.2843L12.7359 24.2607L12.7968 24.2173L12.5069 23.8099ZM12.6109 23.7359L12.9008 24.1433L12.9642 24.0982L13.0109 24.0359L12.6109 23.7359ZM12.6229 23.7199L13.0229 24.0199L13.0857 23.9363L13.1096 23.8344L12.6229 23.7199ZM12.6269 23.7029L13.1136 23.8174L13.1292 23.7511L13.1265 23.683L12.6269 23.7029ZM12.6099 23.2759L13.1095 23.256L13.1075 23.2046L13.095 23.1547L12.6099 23.2759ZM12.8579 23.1449L12.956 22.6546L12.872 22.6379L12.7873 22.65L12.8579 23.1449ZM12.8439 23.1469L12.7733 22.652L12.6918 22.6636L12.6184 22.7007L12.8439 23.1469ZM12.6599 23.2399L12.4344 22.7937L12.363 22.8298L12.3064 22.8864L12.6599 23.2399ZM12.6499 23.2499L12.2964 22.8964L12.2025 22.9903L12.1675 23.1184L12.6499 23.2499ZM12.6469 23.2609L12.1645 23.1294L12.1441 23.2043L12.1474 23.2818L12.6469 23.2609ZM12.6649 23.6909L12.1654 23.7119L12.1691 23.8009L12.2034 23.8833L12.6649 23.6909ZM12.6699 23.7029L12.2084 23.8953L12.2464 23.9865L12.3164 24.0565L12.6699 23.7029ZM12.6779 23.7109L12.3244 24.0645L12.388 24.1281L12.4698 24.1656L12.6779 23.7109ZM12.8789 23.8029L12.6708 24.2576L12.71 24.2755L12.7517 24.2865L12.8789 23.8029ZM12.9079 23.7949L13.3042 24.0998L13.3625 24.0241L13.3887 23.9323L12.9079 23.7949ZM12.9119 23.7809L13.3927 23.9183L13.4158 23.8373L13.4112 23.7533L12.9119 23.7809ZM12.8779 23.1669L13.3772 23.1393L13.3744 23.0887L13.3615 23.0397L12.8779 23.1669ZM12.1429 23.1469L11.8838 23.5745L11.9012 23.5851L11.9193 23.5942L12.1429 23.1469ZM12.1282 23.1445L12.2367 23.6326L12.1282 23.1445ZM12.1159 23.1529L11.7001 22.8753L11.6745 22.9136L11.6564 22.956L12.1159 23.1529ZM12.1099 23.1669L11.6504 22.97L11.6156 23.0511L11.6107 23.1393L12.1099 23.1669ZM12.0759 23.7809L11.5767 23.7533L11.5752 23.781L11.5767 23.8087L12.0759 23.7809ZM12.0929 23.8049L11.9174 24.2731L12.0348 24.3171L12.159 24.3005L12.0929 23.8049ZM12.1079 23.8029L12.174 24.2985L12.2491 24.2885L12.3179 24.2567L12.1079 23.8029ZM12.3089 23.7099L12.5189 24.1637L12.5739 24.1383L12.6213 24.1004L12.3089 23.7099ZM12.3189 23.7019L12.6313 24.0924L12.7585 23.9906L12.8013 23.8335L12.3189 23.7019ZM12.3219 23.6909L12.8043 23.8225L12.8191 23.7681L12.8215 23.7119L12.3219 23.6909ZM12.3399 23.2609L12.8395 23.2819L12.8425 23.2097L12.825 23.1397L12.3399 23.2609ZM12.3369 23.2489L12.822 23.1277L12.7884 22.9933L12.6905 22.8954L12.3369 23.2489ZM12.3269 23.2389L12.6805 22.8854L12.6231 22.828L12.5505 22.7917L12.3269 23.2389ZM12.5939 23.2579L12.5117 22.7647L12.4997 22.7667L12.5819 23.2599L12.6642 23.7531L12.6762 23.7511L12.5939 23.2579ZM12.5819 23.2599L12.3609 22.8115L12.2899 22.8465L12.5109 23.2949L12.732 23.7434L12.803 23.7084L12.5819 23.2599ZM12.5109 23.2949L12.4129 22.8046L12.3929 22.8086L12.4909 23.2989L12.589 23.7892L12.609 23.7852L12.5109 23.2949ZM12.4909 23.2989L12.6283 22.8182L12.6143 22.8142L12.4769 23.2949L12.3396 23.7757L12.3536 23.7797L12.4909 23.2989ZM12.4769 23.2949L12.703 22.849L12.632 22.813L12.4059 23.2589L12.1798 23.7049L12.2508 23.7409L12.4769 23.2949ZM12.4059 23.2589L12.5272 22.7739C12.4678 22.759 12.3764 22.7469 12.2707 22.7734C12.1565 22.8019 12.06 22.867 11.9915 22.9526L12.3819 23.2649L12.7724 23.5773C12.7092 23.6562 12.6193 23.717 12.5132 23.7435C12.4154 23.7679 12.3334 23.7562 12.2847 23.744L12.4059 23.2589ZM12.3819 23.2649L11.9177 23.0793L11.9137 23.0893L12.3779 23.2749L12.8422 23.4606L12.8462 23.4506L12.3819 23.2649ZM12.3779 23.2749L11.8783 23.2551L11.8613 23.6831L12.3609 23.7029L12.8605 23.7228L12.8775 23.2948L12.3779 23.2749ZM12.3609 23.7029L11.8759 23.8242L11.8809 23.8442L12.3659 23.7229L12.851 23.6017L12.846 23.5817L12.3609 23.7029ZM12.3659 23.7229L11.9696 24.0278L11.9796 24.0408L12.3759 23.7359L12.7722 23.4311L12.7622 23.4181L12.3659 23.7229ZM12.3759 23.7359L12.0861 24.1433L12.19 24.2173L12.4799 23.8099L12.7698 23.4025L12.6658 23.3285L12.3759 23.7359ZM12.4799 23.8099L12.3511 24.2931L12.3661 24.2971L12.4949 23.8139L12.6237 23.3308L12.6087 23.3268L12.4799 23.8099ZM12.4949 23.8139L12.653 24.2883L12.665 24.2843L12.5069 23.8099L12.3488 23.3356L12.3368 23.3396L12.4949 23.8139ZM12.5069 23.8099L12.7968 24.2173L12.9008 24.1433L12.6109 23.7359L12.3211 23.3285L12.2171 23.4025L12.5069 23.8099ZM12.6109 23.7359L13.0109 24.0359L13.0229 24.0199L12.6229 23.7199L12.2229 23.4199L12.2109 23.4359L12.6109 23.7359ZM12.6229 23.7199L13.1096 23.8344L13.1136 23.8174L12.6269 23.7029L12.1402 23.5884L12.1362 23.6054L12.6229 23.7199ZM12.6269 23.7029L13.1265 23.683L13.1095 23.256L12.6099 23.2759L12.1103 23.2958L12.1273 23.7228L12.6269 23.7029ZM12.6099 23.2759L13.095 23.1547C13.0645 23.0328 12.9521 22.8107 12.6761 22.7647L12.5939 23.2579L12.5117 23.7511C12.4043 23.7332 12.3043 23.679 12.2302 23.5956C12.1632 23.5202 12.1362 23.4426 12.1249 23.3972L12.6099 23.2759ZM12.8579 23.1449L12.7873 22.65L12.7733 22.652L12.8439 23.1469L12.9146 23.6419L12.9286 23.6399L12.8579 23.1449ZM12.8439 23.1469L12.6184 22.7007L12.4344 22.7937L12.6599 23.2399L12.8855 23.6862L13.0695 23.5932L12.8439 23.1469ZM12.6599 23.2399L12.3064 22.8864L12.2964 22.8964L12.6499 23.2499L13.0035 23.6035L13.0135 23.5935L12.6599 23.2399ZM12.6499 23.2499L12.1675 23.1184L12.1645 23.1294L12.6469 23.2609L13.1293 23.3925L13.1323 23.3815L12.6499 23.2499ZM12.6469 23.2609L12.1474 23.2818L12.1654 23.7119L12.6649 23.6909L13.1645 23.67L13.1465 23.24L12.6469 23.2609ZM12.6649 23.6909L12.2034 23.8833L12.2084 23.8953L12.6699 23.7029L13.1315 23.5106L13.1265 23.4986L12.6649 23.6909ZM12.6699 23.7029L12.3164 24.0565L12.3244 24.0645L12.6779 23.7109L13.0315 23.3574L13.0235 23.3494L12.6699 23.7029ZM12.6779 23.7109L12.4698 24.1656L12.6708 24.2576L12.8789 23.8029L13.087 23.3483L12.886 23.2563L12.6779 23.7109ZM12.8789 23.8029L12.7517 24.2865C12.8179 24.3039 12.9165 24.3164 13.0286 24.2854C13.1477 24.2526 13.241 24.182 13.3042 24.0998L12.9079 23.7949L12.5116 23.4901C12.5682 23.4166 12.6533 23.3516 12.7627 23.3214C12.8652 23.2932 12.9526 23.3053 13.0062 23.3194L12.8789 23.8029ZM12.9079 23.7949L13.3887 23.9323L13.3927 23.9183L12.9119 23.7809L12.4312 23.6436L12.4272 23.6576L12.9079 23.7949ZM12.9119 23.7809L13.4112 23.7533L13.3772 23.1393L12.8779 23.1669L12.3787 23.1946L12.4127 23.8086L12.9119 23.7809ZM12.8779 23.1669L13.3615 23.0397C13.326 22.9048 13.2092 22.7053 12.956 22.6546L12.8579 23.1449L12.7599 23.6352C12.6634 23.6159 12.5712 23.5661 12.5005 23.4883C12.4351 23.4164 12.4069 23.3416 12.3944 23.2942L12.8779 23.1669ZM12.1429 23.1469L12.4021 22.7193C12.2874 22.6499 12.1505 22.6274 12.0198 22.6564L12.1282 23.1445L12.2367 23.6326C12.116 23.6594 11.9896 23.6387 11.8838 23.5745L12.1429 23.1469ZM12.1282 23.1445L12.0198 22.6564C11.889 22.6855 11.7745 22.7639 11.7001 22.8753L12.1159 23.1529L12.5318 23.4305C12.4631 23.5334 12.3574 23.6058 12.2367 23.6326L12.1282 23.1445ZM12.1159 23.1529L11.6564 22.956L11.6504 22.97L12.1099 23.1669L12.5695 23.3639L12.5755 23.3499L12.1159 23.1529ZM12.1099 23.1669L11.6107 23.1393L11.5767 23.7533L12.0759 23.7809L12.5752 23.8086L12.6092 23.1946L12.1099 23.1669ZM12.0759 23.7809L11.5767 23.8087C11.5811 23.8874 11.6043 23.9885 11.6727 24.0849C11.7422 24.1832 11.834 24.2418 11.9174 24.2731L12.0929 23.8049L12.2685 23.3368C12.3412 23.3641 12.4248 23.4167 12.4887 23.5069C12.5514 23.5954 12.5715 23.6865 12.5752 23.7532L12.0759 23.7809ZM12.0929 23.8049L12.159 24.3005L12.174 24.2985L12.1079 23.8029L12.0418 23.3073L12.0268 23.3093L12.0929 23.8049ZM12.1079 23.8029L12.3179 24.2567L12.5189 24.1637L12.3089 23.7099L12.099 23.2562L11.898 23.3492L12.1079 23.8029ZM12.3089 23.7099L12.6213 24.1004L12.6313 24.0924L12.3189 23.7019L12.0066 23.3115L11.9966 23.3195L12.3089 23.7099ZM12.3189 23.7019L12.8013 23.8335L12.8043 23.8225L12.3219 23.6909L11.8395 23.5594L11.8365 23.5704L12.3189 23.7019ZM12.3219 23.6909L12.8215 23.7119L12.8395 23.2819L12.3399 23.2609L11.8404 23.24L11.8224 23.67L12.3219 23.6909ZM12.3399 23.2609L12.825 23.1397L12.822 23.1277L12.3369 23.2489L11.8519 23.3702L11.8549 23.3822L12.3399 23.2609ZM12.3369 23.2489L12.6905 22.8954L12.6805 22.8854L12.3269 23.2389L11.9734 23.5925L11.9834 23.6025L12.3369 23.2489ZM12.3269 23.2389L12.5505 22.7917L12.3665 22.6997L12.1429 23.1469L11.9193 23.5942L12.1033 23.6862L12.3269 23.2389Z" fill="white" mask="url(#path-1-inside-1_1125_21516)"/>
<path d="M12 2.25C12.7293 2.25 13.4286 2.53994 13.9443 3.05566C14.4601 3.57139 14.75 4.27065 14.75 5V5.25H16C16.9946 5.25 17.9481 5.64537 18.6514 6.34863C19.3546 7.05189 19.75 8.00544 19.75 9V9.25H21C21.1989 9.25 21.3896 9.32907 21.5303 9.46973C21.6709 9.61038 21.75 9.80109 21.75 10C21.75 10.1989 21.6709 10.3896 21.5303 10.5303C21.3896 10.6709 21.1989 10.75 21 10.75H19.75V19C19.75 19.7293 19.4601 20.4286 18.9443 20.9443C18.4286 21.4601 17.7293 21.75 17 21.75H7C6.27065 21.75 5.57139 21.4601 5.05566 20.9443C4.53994 20.4286 4.25 19.7293 4.25 19V10.75H3C2.80109 10.75 2.61038 10.6709 2.46973 10.5303C2.32907 10.3896 2.25 10.1989 2.25 10C2.25 9.80109 2.32907 9.61038 2.46973 9.46973C2.61038 9.32907 2.80109 9.25 3 9.25H4.25V9C4.25 8.00544 4.64537 7.05189 5.34863 6.34863C6.05189 5.64537 7.00544 5.25 8 5.25H9.25V5C9.25 4.27065 9.53994 3.57139 10.0557 3.05566C10.5714 2.53994 11.2707 2.25 12 2.25ZM5.75 19C5.75 19.3315 5.88179 19.6494 6.11621 19.8838C6.35063 20.1182 6.66848 20.25 7 20.25H17C17.3315 20.25 17.6494 20.1182 17.8838 19.8838C18.1182 19.6494 18.25 19.3315 18.25 19V10.75H5.75V19ZM12 12.25C12.7293 12.25 13.4286 12.5399 13.9443 13.0557C14.4601 13.5714 14.75 14.2707 14.75 15C14.75 15.7293 14.4601 16.4286 13.9443 16.9443C13.4286 17.4601 12.7293 17.75 12 17.75L11.7285 17.7363C11.0989 17.6739 10.507 17.3957 10.0557 16.9443C9.53994 16.4286 9.25 15.7293 9.25 15C9.25 14.2707 9.53994 13.5714 10.0557 13.0557C10.5714 12.5399 11.2707 12.25 12 12.25ZM12 13.75C11.6685 13.75 11.3506 13.8818 11.1162 14.1162C10.8818 14.3506 10.75 14.6685 10.75 15C10.75 15.3315 10.8818 15.6494 11.1162 15.8838C11.3506 16.1182 11.6685 16.25 12 16.25C12.3315 16.25 12.6494 16.1182 12.8838 15.8838C13.1182 15.6494 13.25 15.3315 13.25 15C13.25 14.6685 13.1182 14.3506 12.8838 14.1162C12.6494 13.8818 12.3315 13.75 12 13.75ZM8 6.75C7.40326 6.75 6.83114 6.98722 6.40918 7.40918C5.98722 7.83114 5.75 8.40326 5.75 9V9.25H18.25V9C18.25 8.40326 18.0128 7.83114 17.5908 7.40918C17.1689 6.98722 16.5967 6.75 16 6.75H8ZM12 3.75C11.6685 3.75 11.3506 3.88179 11.1162 4.11621C10.8818 4.35063 10.75 4.66848 10.75 5V5.25H13.25V5C13.25 4.66848 13.1182 4.35063 12.8838 4.11621C12.6494 3.88179 12.3315 3.75 12 3.75Z" fill="black" stroke="white" stroke-width="0.5"/>
</svg>
