<svg width="18" height="18" viewBox="0 0 18 18" fill="none" xmlns="http://www.w3.org/2000/svg">
<g clip-path="url(#clip0_23_18176)">
<path d="M5.87231 14.1178C6.83531 14.4441 7.87819 14.6252 8.99981 14.6252C12.8946 14.6252 15.8556 12.4258 17.8041 9.6381C17.9317 9.44988 18 9.22767 18 9.00022C18 8.77278 17.9317 8.55057 17.8041 8.36235C16.9716 7.16985 15.9523 6.08535 14.7553 5.23485L13.9397 6.04935C15.0973 6.83685 16.0783 7.8696 16.8692 9.01035C15.1176 11.5135 12.4423 13.5002 8.99981 13.5002C8.24971 13.5017 7.50267 13.4045 6.77794 13.2111L5.87231 14.1178ZM7.82419 12.1648C8.43018 12.3904 9.0882 12.4371 9.71997 12.2994C10.3517 12.1618 10.9307 11.8455 11.3879 11.3883C11.8451 10.9311 12.1614 10.3522 12.299 9.72038C12.4367 9.08861 12.39 8.43059 12.1644 7.8246L11.2363 8.75272C11.2734 9.08797 11.2347 9.42728 11.123 9.74554C11.0113 10.0638 10.8295 10.3529 10.591 10.5914C10.3525 10.8299 10.0634 11.0117 9.74513 11.1234C9.42687 11.2351 9.08756 11.2739 8.75231 11.2367L7.82419 12.1648ZM6.76331 9.24772L5.83519 10.1758C5.60965 9.56986 5.56294 8.91184 5.70061 8.28006C5.83827 7.64829 6.15452 7.06936 6.61174 6.61215C7.06895 6.15493 7.64788 5.83868 8.27966 5.70101C8.91143 5.56335 9.56945 5.61006 10.1754 5.8356L9.24731 6.76372C8.91207 6.72659 8.57276 6.76531 8.2545 6.87702C7.93623 6.98872 7.64716 7.17055 7.40865 7.40906C7.17015 7.64756 6.98831 7.93664 6.87661 8.25491C6.76491 8.57317 6.72619 8.91248 6.76331 9.24772ZM11.2217 4.78935C10.497 4.59593 9.74992 4.49872 8.99981 4.50022C5.55506 4.50022 2.87756 6.49035 1.13269 8.9856C1.92244 10.1286 2.90344 11.1625 4.06106 11.9511L3.24431 12.7667C2.04731 11.914 1.02806 10.8317 0.194439 9.63922C0.0665402 9.44849 -0.00118761 9.22377 1.57618e-05 8.99412C0.00121913 8.76448 0.0712983 8.54048 0.201189 8.3511C2.14294 5.5746 5.10394 3.37522 8.99981 3.37522C10.0639 3.37145 11.1214 3.54326 12.1296 3.88372L11.2217 4.78935ZM2.08556 16.711C2.03327 16.7633 1.97118 16.8048 1.90285 16.8331C1.83451 16.8614 1.76128 16.8759 1.68731 16.8759C1.61335 16.8759 1.54011 16.8614 1.47178 16.8331C1.40345 16.8048 1.34136 16.7633 1.28906 16.711C1.23677 16.6587 1.19528 16.5966 1.16698 16.5283C1.13867 16.4599 1.1241 16.3867 1.1241 16.3127C1.1241 16.2388 1.13867 16.1655 1.16698 16.0972C1.19528 16.0289 1.23677 15.9668 1.28906 15.9145L15.9141 1.28947C16.0197 1.18385 16.1629 1.12451 16.3123 1.12451C16.4617 1.12451 16.6049 1.18385 16.7106 1.28947C16.8162 1.39509 16.8755 1.53835 16.8755 1.68772C16.8755 1.8371 16.8162 1.98035 16.7106 2.08597L2.08556 16.711Z" fill="#868686"/>
</g>
<defs>
<clipPath id="clip0_23_18176">
<rect width="18" height="18" fill="white"/>
</clipPath>
</defs>
</svg>
