<svg width="17" height="12" viewBox="0 0 17 12" fill="none" xmlns="http://www.w3.org/2000/svg">
<path d="M10.3125 5.8125C10.3125 6.40924 10.0754 6.98153 9.65349 7.40349C9.23153 7.82545 8.65924 8.0625 8.0625 8.0625C7.46576 8.0625 6.89347 7.82545 6.47151 7.40349C6.04955 6.98153 5.8125 6.40924 5.8125 5.8125C5.8125 5.21576 6.04955 4.64347 6.47151 4.22151C6.89347 3.79955 7.46576 3.5625 8.0625 3.5625C8.65924 3.5625 9.23153 3.79955 9.65349 4.22151C10.0754 4.64347 10.3125 5.21576 10.3125 5.8125Z" stroke="#868686" stroke-width="1.125" stroke-linecap="round" stroke-linejoin="round"/>
<path d="M0.5625 5.8125C1.7625 2.73975 4.5645 0.5625 8.0625 0.5625C11.5605 0.5625 14.3625 2.73975 15.5625 5.8125C14.3625 8.88525 11.5605 11.0625 8.0625 11.0625C4.5645 11.0625 1.7625 8.88525 0.5625 5.8125Z" stroke="#868686" stroke-width="1.125" stroke-linecap="round" stroke-linejoin="round"/>
</svg>
