<svg width="24" height="24" viewBox="0 0 24 24" fill="none" xmlns="http://www.w3.org/2000/svg">
<path d="M20.4 1.19995H3.59995C2.27995 1.19995 1.19995 2.27995 1.19995 3.59995V20.4C1.19995 21.7211 2.27995 22.7999 3.59995 22.7999H12V14.4H9.59995V11.4299H12V8.96995C12 6.37315 13.4544 4.54915 16.5191 4.54915L18.6828 4.55155V7.67755H17.2463C16.0535 7.67755 15.6 8.57275 15.6 9.40315V11.4312H18.6815L18 14.4H15.6V22.7999H20.4C21.7199 22.7999 22.7999 21.7211 22.7999 20.4V3.59995C22.7999 2.27995 21.7199 1.19995 20.4 1.19995Z" fill="#3D3D3D"/>
</svg>
