<svg width="18" height="18" viewBox="0 0 18 18" fill="none" xmlns="http://www.w3.org/2000/svg">
<path d="M18 13.5C18 14.0304 17.7893 14.5391 17.4142 14.9142C17.0391 15.2893 16.5304 15.5 16 15.5H2C1.46957 15.5 0.960859 15.2893 0.585786 14.9142C0.210714 14.5391 0 14.0304 0 13.5V4.5C0 3.96957 0.210714 3.46086 0.585786 3.08579C0.960859 2.71071 1.46957 2.5 2 2.5H16C16.5304 2.5 17.0391 2.71071 17.4142 3.08579C17.7893 3.46086 18 3.96957 18 4.5V13.5Z" fill="#FFB700"/>
<path d="M16 3H5V15H16C16.827 15 17.5 14.327 17.5 13.5V4.5C17.5 3.673 16.827 3 16 3Z" fill="#8D2129"/>
<path d="M2 3C1.173 3 0.5 3.673 0.5 4.5V13.5C0.5 14.327 1.173 15 2 15H2.5V3H2Z" fill="#005641"/>
<path d="M2.5 3H4.5V15H2.5V3Z" fill="#FF5B00"/>
<path d="M6.5995 5.03089C6.5995 5.03089 6.566 4.55139 6.582 4.14989C6.5925 3.88389 6.4435 3.56239 6.162 3.60889C5.8805 3.65539 5.568 3.59839 5.568 3.59839C5.568 3.59839 5.6305 3.78039 5.568 3.95239C5.5055 4.12439 5.5055 4.48339 5.9275 4.53039C6.3495 4.57789 6.5215 4.79639 6.5995 5.03089ZM15.9415 5.03089C15.9415 5.03089 15.975 4.55139 15.959 4.14989C15.9485 3.88389 16.0975 3.56239 16.379 3.60889C16.6605 3.65539 16.973 3.59839 16.973 3.59839C16.973 3.59839 16.9105 3.78039 16.973 3.95239C17.0355 4.12439 17.0355 4.48339 16.6135 4.53039C16.1915 4.57789 16.0195 4.79639 15.9415 5.03089ZM6.5995 12.9689C6.5995 12.9689 6.566 13.4489 6.582 13.8504C6.5925 14.1164 6.4435 14.4379 6.162 14.3909C5.8805 14.3439 5.568 14.4014 5.568 14.4014C5.568 14.4014 5.6305 14.2189 5.568 14.0469C5.5055 13.8749 5.5055 13.5159 5.9275 13.4689C6.3495 13.4219 6.5215 13.2029 6.5995 12.9689ZM15.9415 12.9689C15.9415 12.9689 15.975 13.4489 15.959 13.8504C15.9485 14.1164 16.0975 14.4379 16.379 14.3909C16.6605 14.3439 16.973 14.4014 16.973 14.4014C16.973 14.4014 16.9105 14.2189 16.973 14.0469C17.0355 13.8749 17.0355 13.5159 16.6135 13.4689C16.1915 13.4219 16.0195 13.2029 15.9415 12.9689ZM9.203 6.68739C9.203 6.68739 9.5 6.67189 9.797 6.59339C10.094 6.51539 10 6.23439 10 6.23439C10 6.23439 10.2655 6.09389 10.422 6.23439C10.5785 6.37489 10.766 6.35939 10.672 6.17189C10.953 6.03139 11.078 6.34389 11.078 6.34389C11.078 6.34389 11.2185 6.25539 11.25 6.13539C11.5 6.10939 11.547 6.35939 11.703 6.32789C11.859 6.29639 11.9685 6.13339 11.9685 6.13339C11.9685 6.13339 11.9995 6.57789 11.734 6.68739C11.953 6.96839 11.89 7.51539 11.89 7.65639L11.734 7.56239C11.734 7.56239 11.828 7.99989 11.8745 8.06239C11.921 8.12489 11.7185 8.06239 11.7185 8.06239C11.7185 8.06239 11.828 8.35939 11.906 8.40639C11.984 8.45339 13.453 8.31239 13.875 8.31239C14.297 8.31239 14.875 8.24989 14.875 7.87489C14.875 7.49989 14.3905 7.53089 13.844 7.60939C13.297 7.68739 12.938 7.67189 12.719 7.53139C12.5 7.39089 12.2505 7.35439 12.271 7.70839C11.9375 7.55239 12.177 7.21889 12.177 7.21889C12.177 7.21889 11.7965 6.80239 12.039 6.38539C12.281 5.96889 13.2185 5.84339 13.875 6.20839C14.5315 6.57339 14.7915 6.87489 15.0625 6.92739C15.052 6.72939 15.3855 6.58389 15.427 6.94839C15.4685 7.31289 15.01 7.23989 14.8125 7.12539C14.615 7.01089 14.2605 6.66689 14.2605 6.66689C14.2605 6.66689 14.25 6.87539 14.3855 7.01089C14.0105 6.96939 13.9275 6.68789 13.9275 6.68789C13.9275 6.68789 13.906 6.98939 13.5625 6.99989C13.8125 6.70839 13.729 6.46889 13.3855 6.34389C13.5835 6.64589 13.396 6.90639 13.1045 6.94789C13.3025 6.66689 13.136 6.34389 12.7715 6.28139C12.8235 6.51039 12.6465 6.57289 12.6465 6.57289C12.6465 6.57289 12.5635 6.36439 12.3965 6.47889C12.2295 6.59339 12.1875 6.84389 12.406 6.99989C12.5415 6.72889 12.812 6.74989 12.906 6.86439C12.625 6.89539 12.6355 7.15639 12.7395 7.29139C12.8435 7.11439 12.948 7.06239 13.052 7.24989C13.156 7.43739 13.4685 7.42689 14.031 7.34389C14.5935 7.26089 15.1115 7.32189 15.1975 7.82289C15.2705 8.24989 14.8435 8.45839 14.8435 8.45839C14.8435 8.45839 15.3955 8.87489 15.0415 9.78139C14.6875 10.6879 14.8335 11.0624 14.9685 11.1564C15.1035 11.2504 15.3125 11.2604 15.031 11.5104C14.7495 11.7604 14.8225 11.9379 14.937 12.0834C15.0515 12.2289 15.0205 12.3749 14.687 12.1874C14.541 12.3334 14.3955 12.2914 14.312 12.1664C14.2285 12.2809 14.0725 12.3124 13.968 12.1874C13.864 12.2709 13.7285 12.2709 13.8015 12.0934C13.8745 11.9159 14.2285 11.8434 14.3325 11.8124C14.4365 11.7814 14.4265 11.5934 14.395 11.3854C14.3635 11.1774 14.1865 10.9584 13.8115 10.7604C13.645 10.8854 13.6655 11.0309 13.728 11.1044C13.7905 11.1779 13.9885 11.1984 13.999 11.2604C14.0095 11.3224 13.895 11.4584 13.77 11.5524C13.645 11.6464 13.666 11.8129 13.7075 11.8964C13.749 11.9799 13.801 12.1849 13.6655 12.2804C13.53 12.3754 13.395 12.1569 13.395 12.1569C13.395 12.1569 13.311 12.4174 13.072 12.1674C12.9365 12.3344 12.8015 12.2719 12.739 12.1779C12.6035 12.3134 12.395 12.3029 12.4995 12.1154C12.604 11.9279 12.7285 11.9274 12.8745 11.9174C13.0205 11.9074 13.218 11.8764 13.1975 11.5844C13.177 11.2924 13.1195 10.9959 12.9165 10.8134C12.604 10.5324 12.656 10.1989 12.656 10.1989C12.656 10.1989 12.135 10.1469 11.729 10.4284C11.323 10.7099 11.01 10.7094 11.01 10.7094C11.01 10.7094 10.7805 10.9594 10.76 11.1154C10.7395 11.2714 10.833 11.3239 10.958 11.3654C11.083 11.4069 11.177 11.3964 10.989 11.5634C10.801 11.7304 10.645 11.7194 10.645 11.7194C10.645 11.7194 10.6355 11.8959 10.656 11.9999C10.6765 12.1039 10.614 12.2844 10.51 12.3034C10.406 12.3224 10.2495 12.1874 10.2495 12.1874C10.2495 12.1874 10.0515 12.3959 9.8955 12.1769C9.7185 12.3434 9.562 12.2814 9.4995 12.1769C9.3955 12.3434 9.2285 12.2709 9.333 12.0829C9.4375 11.8949 9.583 11.8739 9.833 11.8849C10.083 11.8959 10.291 11.6974 10.1975 11.4369C10.104 11.1764 10.0205 10.8224 10.0205 10.8224C10.0205 10.8224 9.8225 10.8014 9.531 10.6349C9.1665 11.0724 9.0415 10.9164 8.937 10.8329C8.8325 10.7494 8.583 10.5204 8.583 10.5204C8.583 10.5204 8.4475 10.5099 8.4685 10.6349C8.3225 10.6244 8.3745 10.3954 8.3745 10.2809C8.3745 10.1664 8.333 10.0309 8.2495 10.0309C8.166 10.0309 8.041 10.0519 8.041 10.0519C8.041 10.0519 8.041 10.0929 8.166 10.1349C8.291 10.1769 8.2805 10.2604 8.1555 10.2704C8.0305 10.2804 7.947 10.3114 8.041 10.3849C8.135 10.4584 8.145 10.4994 8.072 10.5724C7.999 10.6454 8.0095 10.8429 8.1345 10.9164C8.218 10.7184 8.374 10.8334 8.343 10.9684C8.312 11.1034 8.0825 11.0829 8.0825 11.0829L8.2385 11.2599L8.0005 11.3119C8.0005 11.3119 7.9885 11.4579 7.895 11.4889C7.8015 11.5199 7.7805 11.2699 7.7805 11.2699L7.5615 11.2594L7.7075 11.0824C7.7075 11.0824 7.499 11.0094 7.4885 10.8844C7.478 10.7594 7.6445 10.8219 7.676 10.8844C7.8425 10.8114 7.7905 10.6449 7.728 10.5824C7.6655 10.5199 7.707 10.4679 7.7695 10.3949C7.832 10.3219 7.8215 10.2804 7.728 10.3009C7.6345 10.3214 7.478 10.1339 7.634 10.1339C7.79 10.1339 7.8215 10.1234 7.8005 10.0089C7.613 9.98839 7.7275 9.84239 7.7275 9.84239C7.7275 9.84239 7.5815 9.73789 7.686 9.66539C7.592 9.58239 7.5715 9.44639 7.6755 9.42589C7.613 9.37389 7.6965 9.27989 7.6965 9.27989C7.6965 9.27989 7.396 9.22889 7.396 8.99989C7.396 8.77089 7.6565 8.81239 7.6565 8.81239C7.6565 8.81239 7.6255 8.08339 7.698 7.06239C7.7705 6.04139 8.198 5.68739 8.4585 5.58339C8.1875 6.15639 8.219 7.12489 8.219 7.71889C8.219 8.31289 8.2085 8.78139 8.2085 8.78139C8.2085 8.78139 8.5 8.80189 8.479 8.99989C8.458 9.19789 8.323 9.23939 8.323 9.23939L9 9.91639C9 9.91639 8.969 9.22189 9.198 8.94439C9.427 8.66689 9.781 8.40639 9.8855 8.32289C9.99 8.23939 9.821 8.01839 9.74 8.26039C9.622 8.24589 9.521 8.05189 9.521 8.05189C9.521 8.05189 9.5315 8.12489 9.4585 8.17689C9.3855 8.22889 9.4065 7.99989 9.3645 8.02089C9.3225 8.04189 9.2085 8.10439 9.0625 8.14589C9.073 8.06239 9.1355 7.95839 9.1355 7.95839C9.1355 7.95839 8.948 7.97889 8.781 7.99989C8.781 7.85389 8.8745 7.61439 8.958 7.59389C8.7495 7.48989 8.802 7.29189 8.8955 7.32289C8.989 7.35389 9.4265 7.61439 9.9165 7.64589C9.7605 7.46889 9.6355 7.23989 9.6355 7.23989L9.5835 7.41689L9.396 7.23989L9.375 7.41689C9.375 7.41689 8.9165 7.08339 8.8335 6.81289C8.7505 6.54239 8.844 6.34339 9 6.36489C9.302 6.40589 9.203 6.68739 9.203 6.68739Z" fill="#FFB700"/>
</svg>
