<svg width="17" height="15" viewBox="0 0 17 15" fill="none" xmlns="http://www.w3.org/2000/svg">
<path d="M12.2471 0.5C14.3973 0.500226 16.1669 2.30094 16.167 4.56738C16.167 6.90207 14.9889 8.92463 12.8535 10.9307C11.8516 11.8723 10.6565 12.7841 9.70508 13.4639C9.23075 13.8027 8.81927 14.0821 8.52734 14.2764C8.45444 14.3249 8.38817 14.3668 8.33105 14.4043C8.27083 14.3653 8.20058 14.3215 8.12305 14.2705C7.82401 14.074 7.40455 13.7916 6.9248 13.4512C5.96186 12.7678 4.77055 11.8589 3.81934 10.9365C1.89939 9.07464 0.5 6.88637 0.5 4.56738C0.500061 2.30778 2.27003 0.500044 4.41992 0.5C5.91997 0.5 7.22675 1.37781 7.8877 2.67871L8.33301 3.55664L8.7793 2.67871C9.44026 1.37788 10.7471 0.5 12.2471 0.5Z" stroke="#00378F"/>
</svg>
