<svg width="20" height="20" viewBox="0 0 20 20" fill="none" xmlns="http://www.w3.org/2000/svg">
<path d="M9.95866 15.0001C10.2503 15.0001 10.497 14.8992 10.6987 14.6976C10.9003 14.4959 11.0009 14.2495 11.0003 13.9584C10.9998 13.6673 10.8992 13.4206 10.6987 13.2184C10.4981 13.0162 10.2514 12.9156 9.95866 12.9167C9.66588 12.9179 9.41949 13.0187 9.21949 13.2192C9.01949 13.4198 8.91866 13.6662 8.91699 13.9584C8.91533 14.2506 9.01616 14.4973 9.21949 14.6984C9.42283 14.8995 9.66922 15.0001 9.95866 15.0001ZM10.0003 18.3334C8.84755 18.3334 7.76422 18.1145 6.75033 17.6767C5.73644 17.239 4.85449 16.6454 4.10449 15.8959C3.35449 15.1465 2.76088 14.2645 2.32366 13.2501C1.88644 12.2356 1.66755 11.1523 1.66699 10.0001C1.66644 8.84786 1.88533 7.76453 2.32366 6.75008C2.76199 5.73564 3.3556 4.85369 4.10449 4.10425C4.85338 3.3548 5.73533 2.76119 6.75033 2.32341C7.76533 1.88564 8.84866 1.66675 10.0003 1.66675C11.152 1.66675 12.2353 1.88564 13.2503 2.32341C14.2653 2.76119 15.1473 3.3548 15.8962 4.10425C16.6451 4.85369 17.2389 5.73564 17.6778 6.75008C18.1167 7.76453 18.3353 8.84786 18.3337 10.0001C18.332 11.1523 18.1131 12.2356 17.677 13.2501C17.2409 14.2645 16.6473 15.1465 15.8962 15.8959C15.1451 16.6454 14.2631 17.2392 13.2503 17.6776C12.2375 18.1159 11.1542 18.3345 10.0003 18.3334ZM10.0837 6.41675C10.4309 6.41675 10.7331 6.52786 10.9903 6.75008C11.2475 6.9723 11.3759 7.25008 11.3753 7.58342C11.3753 7.88897 11.2817 8.1598 11.0945 8.39592C10.9073 8.63203 10.6953 8.85425 10.4587 9.06258C10.1392 9.34036 9.8581 9.64592 9.61533 9.97925C9.37255 10.3126 9.25088 10.6876 9.25033 11.1042C9.25033 11.2987 9.32338 11.462 9.46949 11.5942C9.6156 11.7265 9.7856 11.7923 9.97949 11.7917C10.1878 11.7917 10.365 11.7223 10.5112 11.5834C10.6573 11.4445 10.7509 11.2709 10.792 11.0626C10.8475 10.7709 10.9725 10.5106 11.167 10.2817C11.3614 10.0529 11.5698 9.83397 11.792 9.62508C12.1114 9.31953 12.3859 8.98619 12.6153 8.62508C12.8448 8.26397 12.9592 7.86119 12.9587 7.41675C12.9587 6.70841 12.6706 6.12869 12.0945 5.67758C11.5184 5.22647 10.8481 5.00064 10.0837 5.00008C9.55588 5.00008 9.05255 5.11119 8.57366 5.33342C8.09477 5.55564 7.73005 5.89592 7.47949 6.35425C7.38227 6.52092 7.35116 6.69814 7.38616 6.88591C7.42116 7.07369 7.51477 7.21591 7.66699 7.31258C7.86144 7.42369 8.06283 7.45841 8.27116 7.41675C8.47949 7.37508 8.6531 7.25703 8.79199 7.06258C8.94477 6.85425 9.13588 6.69453 9.36533 6.58342C9.59477 6.4723 9.83422 6.41675 10.0837 6.41675Z" fill="#00378F"/>
</svg>
