<svg width="24" height="24" viewBox="0 0 24 24" fill="none" xmlns="http://www.w3.org/2000/svg">
<path d="M4.375 4C3.74511 4 3.14102 4.25022 2.69562 4.69562C2.25022 5.14102 2 5.74511 2 6.375V15.625C2 16.2549 2.25022 16.859 2.69562 17.3044C3.14102 17.7498 3.74511 18 4.375 18H19.625C20.2549 18 20.859 17.7498 21.3044 17.3044C21.7498 16.859 22 16.2549 22 15.625V6.375C22 5.74511 21.7498 5.14102 21.3044 4.69562C20.859 4.25022 20.2549 4 19.625 4H4.375ZM3.25 6.375C3.25 6.07663 3.36853 5.79048 3.5795 5.5795C3.79048 5.36853 4.07663 5.25 4.375 5.25H19.625C19.9234 5.25 20.2095 5.36853 20.4205 5.5795C20.6315 5.79048 20.75 6.07663 20.75 6.375V15.625C20.75 15.9234 20.6315 16.2095 20.4205 16.4205C20.2095 16.6315 19.9234 16.75 19.625 16.75H4.375C4.07663 16.75 3.79048 16.6315 3.5795 16.4205C3.36853 16.2095 3.25 15.9234 3.25 15.625V6.375ZM5.625 19.75C5.45924 19.75 5.30027 19.8158 5.18306 19.9331C5.06585 20.0503 5 20.2092 5 20.375C5 20.5408 5.06585 20.6997 5.18306 20.8169C5.30027 20.9342 5.45924 21 5.625 21H18.375C18.5408 21 18.6997 20.9342 18.8169 20.8169C18.9342 20.6997 19 20.5408 19 20.375C19 20.2092 18.9342 20.0503 18.8169 19.9331C18.6997 19.8158 18.5408 19.75 18.375 19.75H5.625Z" fill="#3D3D3D"/>
</svg>
