<svg width="28" height="28" viewBox="0 0 28 28" fill="none" xmlns="http://www.w3.org/2000/svg">
<path fill-rule="evenodd" clip-rule="evenodd" d="M6.78002 1.57397C5.39912 1.57397 4.07475 2.1224 3.09812 3.09866C2.12148 4.07491 1.57255 5.39907 1.57202 6.77997V20.668C1.57202 22.0492 2.12072 23.3739 3.09741 24.3506C4.0741 25.3273 5.39877 25.876 6.78002 25.876H20.668C22.0489 25.8754 23.3731 25.3265 24.3493 24.3499C25.3256 23.3732 25.874 22.0489 25.874 20.668V6.77997C25.8735 5.39942 25.3248 4.07556 24.3486 3.09936C23.3724 2.12316 22.0486 1.5745 20.668 1.57397H6.78002ZM22.166 6.78797C22.166 7.1858 22.008 7.56733 21.7267 7.84863C21.4454 8.12994 21.0638 8.28797 20.666 8.28797C20.2682 8.28797 19.8867 8.12994 19.6054 7.84863C19.3241 7.56733 19.166 7.1858 19.166 6.78797C19.166 6.39015 19.3241 6.00862 19.6054 5.72731C19.8867 5.44601 20.2682 5.28797 20.666 5.28797C21.0638 5.28797 21.4454 5.44601 21.7267 5.72731C22.008 6.00862 22.166 6.39015 22.166 6.78797ZM13.726 9.56397C12.6227 9.56397 11.5646 10.0023 10.7845 10.7824C10.0043 11.5626 9.56602 12.6207 9.56602 13.724C9.56602 14.8273 10.0043 15.8854 10.7845 16.6655C11.5646 17.4457 12.6227 17.884 13.726 17.884C14.8293 17.884 15.8874 17.4457 16.6676 16.6655C17.4477 15.8854 17.886 14.8273 17.886 13.724C17.886 12.6207 17.4477 11.5626 16.6676 10.7824C15.8874 10.0023 14.8293 9.56397 13.726 9.56397ZM7.56402 13.724C7.56402 12.0902 8.21302 10.5234 9.36824 9.3682C10.5235 8.21297 12.0903 7.56397 13.724 7.56397C15.3578 7.56397 16.9246 8.21297 18.0798 9.3682C19.235 10.5234 19.884 12.0902 19.884 13.724C19.884 15.3577 19.235 16.9245 18.0798 18.0798C16.9246 19.235 15.3578 19.884 13.724 19.884C12.0903 19.884 10.5235 19.235 9.36824 18.0798C8.21302 16.9245 7.56402 15.3577 7.56402 13.724Z" fill="#3D3D3D"/>
</svg>
