<svg width="24" height="24" viewBox="0 0 24 24" fill="none" xmlns="http://www.w3.org/2000/svg">
<g clip-path="url(#clip0_1121_7633)">
<path d="M21 1.5H3C2.60218 1.5 2.22064 1.65804 1.93934 1.93934C1.65804 2.22064 1.5 2.60218 1.5 3V13.5C1.5 13.8978 1.65804 14.2794 1.93934 14.5607C2.22064 14.842 2.60218 15 3 15H10.5V21H6.75C6.55109 21 6.36032 20.921 6.21967 20.7803C6.07902 20.6397 6 20.4489 6 20.25C6 20.0511 6.07902 19.8603 6.21967 19.7197C6.36032 19.579 6.55109 19.5 6.75 19.5H9V16.5H3C1.35 16.5 0 15.1575 0 13.5V3C0 1.35 1.3425 0 3 0H21C22.65 0 24 1.3425 24 3H22.5C22.5 2.60218 22.342 2.22064 22.0607 1.93934C21.7794 1.65804 21.3978 1.5 21 1.5Z" fill="#3D3D3D"/>
<path d="M17.25 9C17.0511 9 16.8603 9.07902 16.7197 9.21967C16.579 9.36032 16.5 9.55109 16.5 9.75C16.5 9.94891 16.579 10.1397 16.7197 10.2803C16.8603 10.421 17.0511 10.5 17.25 10.5H20.25C20.4489 10.5 20.6397 10.421 20.7803 10.2803C20.921 10.1397 21 9.94891 21 9.75C21 9.55109 20.921 9.36032 20.7803 9.21967C20.6397 9.07902 20.4489 9 20.25 9H17.25ZM17.25 12C17.0511 12 16.8603 12.079 16.7197 12.2197C16.579 12.3603 16.5 12.5511 16.5 12.75C16.5 12.9489 16.579 13.1397 16.7197 13.2803C16.8603 13.421 17.0511 13.5 17.25 13.5H20.25C20.4489 13.5 20.6397 13.421 20.7803 13.2803C20.921 13.1397 21 12.9489 21 12.75C21 12.5511 20.921 12.3603 20.7803 12.2197C20.6397 12.079 20.4489 12 20.25 12H17.25ZM20.25 21C20.4489 21 20.6397 20.921 20.7803 20.7803C20.921 20.6397 21 20.4489 21 20.25C21 20.0511 20.921 19.8603 20.7803 19.7197C20.6397 19.579 20.4489 19.5 20.25 19.5C20.0511 19.5 19.8603 19.579 19.7197 19.7197C19.579 19.8603 19.5 20.0511 19.5 20.25C19.5 20.4489 19.579 20.6397 19.7197 20.7803C19.8603 20.921 20.0511 21 20.25 21Z" fill="#3D3D3D"/>
<path fill-rule="evenodd" clip-rule="evenodd" d="M13.5 9.6C13.5 8.34 13.5 7.71 13.7445 7.23C13.9605 6.807 14.304 6.462 14.7285 6.246C15.21 6.0015 15.84 6.0015 17.0985 6.0015H20.3985C21.6585 6.0015 22.2885 6.0015 22.7685 6.246C23.1915 6.462 23.5365 6.8055 23.7525 7.23C23.9985 7.7115 23.9985 8.3415 23.9985 9.6V20.4C23.9985 21.66 23.9985 22.29 23.7525 22.77C23.5367 23.1937 23.1922 23.5382 22.7685 23.754C22.287 24 21.657 24 20.3985 24H17.0985C15.8385 24 15.2085 24 14.7285 23.754C14.3048 23.5382 13.9603 23.1937 13.7445 22.77C13.5 22.2885 13.5 21.6585 13.5 20.4V9.6ZM17.1 7.5H20.4C21.054 7.5 21.456 7.5 21.756 7.5255C21.8652 7.53337 21.9736 7.55043 22.08 7.5765L22.092 7.581C22.2327 7.65284 22.3472 7.76728 22.419 7.908V7.9125L22.4235 7.92L22.437 7.968C22.449 8.019 22.4625 8.103 22.4745 8.244C22.4985 8.544 22.5 8.9445 22.5 9.6V20.4C22.5 21.054 22.5 21.456 22.4745 21.756C22.4666 21.8652 22.4496 21.9736 22.4235 22.08L22.4205 22.086L22.419 22.0905C22.3472 22.2312 22.2327 22.3457 22.092 22.4175L22.08 22.4235L22.032 22.437C21.9414 22.458 21.849 22.4706 21.756 22.4745C21.456 22.4985 21.0555 22.5 20.4 22.5H17.1C16.446 22.5 16.044 22.5 15.744 22.4745C15.6348 22.4666 15.5264 22.4496 15.42 22.4235L15.414 22.4205L15.4095 22.4175C15.2688 22.3457 15.1543 22.2312 15.0825 22.0905L15.0765 22.08L15.063 22.032C15.042 21.9414 15.0294 21.849 15.0255 21.756C15.0015 21.456 15 21.0555 15 20.4V9.6C15 8.9445 15 8.544 15.0255 8.244C15.0334 8.13476 15.0504 8.02638 15.0765 7.92L15.0795 7.9125L15.0825 7.908C15.1543 7.76728 15.2688 7.65284 15.4095 7.581L15.42 7.5765L15.468 7.563C15.5586 7.54197 15.651 7.52941 15.744 7.5255C16.044 7.5015 16.4445 7.5 17.1 7.5Z" fill="#3D3D3D"/>
</g>
<defs>
<clipPath id="clip0_1121_7633">
<rect width="24" height="24" fill="white"/>
</clipPath>
</defs>
</svg>
