<svg width="24" height="24" viewBox="0 0 24 24" fill="none" xmlns="http://www.w3.org/2000/svg">
<path d="M16.7298 2.06494H7.26979C6.64241 2.10263 6.05524 2.38633 5.63583 2.85443C5.21641 3.32253 4.99863 3.93721 5.02979 4.56494V19.4349C4.99863 20.0627 5.21641 20.6774 5.63583 21.1455C6.05524 21.6136 6.64241 21.8973 7.26979 21.9349H16.7298C17.3572 21.8973 17.9443 21.6136 18.3638 21.1455C18.7832 20.6774 19.001 20.0627 18.9698 19.4349V4.56494C19.001 3.93721 18.7832 3.32253 18.3638 2.85443C17.9443 2.38633 17.3572 2.10263 16.7298 2.06494ZM17.9698 19.4349C18.0006 19.7975 17.888 20.1577 17.6561 20.4382C17.4243 20.7186 17.0917 20.897 16.7298 20.9349H7.26979C6.9079 20.897 6.57532 20.7186 6.34348 20.4382C6.11163 20.1577 5.99901 19.7975 6.02979 19.4349V4.56494C5.99901 4.20237 6.11163 3.84218 6.34348 3.56172C6.57532 3.28126 6.9079 3.1029 7.26979 3.06494H8.79979V3.57494C8.79979 3.84016 8.90515 4.09451 9.09269 4.28205C9.28022 4.46958 9.53458 4.57494 9.79979 4.57494H14.1998C14.465 4.57494 14.7194 4.46958 14.9069 4.28205C15.0944 4.09451 15.1998 3.84016 15.1998 3.57494V3.06494H16.7298C17.0917 3.1029 17.4243 3.28126 17.6561 3.56172C17.888 3.84218 18.0006 4.20237 17.9698 4.56494V19.4349Z" fill="black"/>
<path d="M10 18.934H14C14.1326 18.934 14.2598 18.8813 14.3536 18.7875C14.4473 18.6937 14.5 18.5666 14.5 18.434C14.5 18.3014 14.4473 18.1742 14.3536 18.0804C14.2598 17.9866 14.1326 17.934 14 17.934H10C9.86739 17.934 9.74021 17.9866 9.64645 18.0804C9.55268 18.1742 9.5 18.3014 9.5 18.434C9.5 18.5666 9.55268 18.6937 9.64645 18.7875C9.74021 18.8813 9.86739 18.934 10 18.934Z" fill="black"/>
</svg>
