<svg width="20" height="20" viewBox="0 0 20 20" fill="none" xmlns="http://www.w3.org/2000/svg">
<path d="M14.6487 3.69341L12.982 2.81841C11.5187 2.05091 10.787 1.66675 10.0003 1.66675C9.21366 1.66675 8.48199 2.05008 7.01866 2.81841L6.75116 2.95925L14.187 7.20841L17.5337 5.53341C16.9953 4.92341 16.127 4.46758 14.6487 3.69175M18.1237 6.63675L14.792 8.30341V10.8334C14.792 10.9992 14.7261 11.1581 14.6089 11.2754C14.4917 11.3926 14.3328 11.4584 14.167 11.4584C14.0012 11.4584 13.8423 11.3926 13.725 11.2754C13.6078 11.1581 13.542 10.9992 13.542 10.8334V8.92841L10.6253 10.3867V18.2534C11.2237 18.1042 11.9045 17.7476 12.982 17.1817L14.6487 16.3067C16.4412 15.3659 17.3378 14.8959 17.8362 14.0501C18.3337 13.2051 18.3337 12.1526 18.3337 10.0501V9.95258C18.3337 8.37508 18.3337 7.38841 18.1237 6.63675ZM9.37533 18.2534V10.3867L1.87699 6.63675C1.66699 7.38841 1.66699 8.37508 1.66699 9.95091V10.0484C1.66699 12.1526 1.66699 13.2051 2.16449 14.0501C2.66283 14.8959 3.55949 15.3667 5.35199 16.3076L7.01866 17.1817C8.09616 17.7476 8.77699 18.1042 9.37533 18.2534ZM2.46699 5.53425L10.0003 9.30091L12.8428 7.88008L5.43783 3.64841L5.35199 3.69341C3.87449 4.46841 3.00533 4.92425 2.46699 5.53508" fill="#00378F"/>
</svg>
