<svg width="18" height="18" viewBox="0 0 18 18" fill="none" xmlns="http://www.w3.org/2000/svg">
<path d="M15.8056 16.0295L12.4135 12.6374M12.4135 12.6374C12.9937 12.0572 13.454 11.3683 13.768 10.6102C14.082 9.85211 14.2437 9.03957 14.2437 8.219C14.2437 7.39843 14.082 6.58589 13.768 5.82779C13.454 5.06968 12.9937 4.38085 12.4135 3.80061C11.8333 3.22038 11.1444 2.76012 10.3863 2.4461C9.62823 2.13208 8.81569 1.97046 7.99512 1.97046C7.17455 1.97046 6.36202 2.13208 5.60391 2.4461C4.8458 2.76012 4.15697 3.22038 3.57674 3.80061C2.40491 4.97244 1.74658 6.56178 1.74658 8.219C1.74658 9.87622 2.40491 11.4656 3.57674 12.6374C4.74857 13.8092 6.33791 14.4675 7.99512 14.4675C9.65234 14.4675 11.2417 13.8092 12.4135 12.6374Z" stroke="white" stroke-width="1.5" stroke-linecap="round" stroke-linejoin="round"/>
</svg>
