<svg width="24" height="24" viewBox="0 0 24 24" fill="none" xmlns="http://www.w3.org/2000/svg">
<path d="M14 22C17.771 22 19.657 22 20.828 20.788C21.999 19.576 22 17.626 22 13.725V12.204C22 9.91499 22 8.77098 21.48 7.82298C20.962 6.87398 20.013 6.28598 18.116 5.10798L16.116 3.86698C14.11 2.62198 13.108 1.99998 12 1.99998C10.892 1.99998 9.89 2.62198 7.884 3.86698L5.884 5.10798C3.987 6.28598 3.038 6.87398 2.519 7.82298C2.201 8.40298 2.079 9.05599 2.03 9.99999M11 22C11 19.613 10.0518 17.3239 8.36396 15.636C6.67613 13.9482 4.38695 13 2 13M8 22C8 20.4087 7.36786 18.8826 6.24264 17.7573C5.11742 16.6321 3.5913 16 2 16M5 22C5 21.2043 4.68393 20.4413 4.12132 19.8787C3.55871 19.3161 2.79565 19 2 19" stroke="#3D3D3D" stroke-width="1.5" stroke-linecap="round"/>
</svg>
