<svg width="200" height="200" viewBox="0 0 200 200" fill="none" xmlns="http://www.w3.org/2000/svg">
<path d="M36.0918 188.332C43.3874 183.187 45.0435 173.645 44.7526 165.042C44.7057 163.62 44.8605 162.095 44.1849 160.839C43.5093 159.584 41.9376 158.722 40.6662 159.323C39.6106 159.825 39.1508 161.067 38.5596 162.09C37.7709 163.454 36.6182 164.567 35.2332 165.302C34.3277 165.776 33.2064 166.065 32.315 165.567C31.0905 164.885 30.9451 163.175 30.9544 161.749C30.9732 159.09 30.9904 156.432 31.006 153.776C31.0911 152.35 30.947 150.919 30.5791 149.54C30.1381 148.19 29.1716 146.93 27.8251 146.551C26.4786 146.172 24.8224 146.953 24.5409 148.351C24.4885 148.94 24.4759 149.532 24.5034 150.123C24.4612 150.715 24.1891 151.374 23.6354 151.544C23.0818 151.715 22.5047 151.307 22.0825 150.89C20.6234 149.469 19.6381 147.598 18.7139 145.755C17.7896 143.912 16.8888 142.022 15.5658 140.449C14.2427 138.876 12.4177 137.635 10.4049 137.521C8.39221 137.407 6.22466 138.663 5.71327 140.671C5.20187 142.68 6.36541 144.717 7.62747 146.356C9.50547 148.769 11.7176 150.896 14.1958 152.672C14.6783 152.941 15.0629 153.36 15.2936 153.866C15.5986 154.813 14.7072 155.761 13.7782 156.073C12.7273 156.424 11.5825 156.315 10.4941 156.448C9.40561 156.58 8.19985 157.068 7.78229 158.12C7.20522 159.574 8.41097 161.105 9.59797 162.104C11.9727 164.107 14.6706 165.682 17.5738 166.761C18.6154 167.145 19.7085 167.481 20.5436 168.22C21.3787 168.96 21.8901 170.239 21.3834 171.243C20.8767 172.247 19.5771 172.57 18.4887 172.366C17.4002 172.162 16.415 171.556 15.3687 171.153C13.4264 170.409 10.921 170.547 9.67773 172.238C9.29887 172.822 9.0593 173.486 8.97789 174.179C8.89648 174.872 8.97544 175.575 9.20856 176.232C9.68147 177.539 10.4089 178.738 11.348 179.757C14.4241 183.485 18.4245 186.323 22.9411 187.981C27.4404 189.559 31.6113 189.985 36.0777 188.332" fill="#F5F5F5"/>
<path d="M36.2065 194.699C35.8112 190.717 35.0382 186.783 33.8982 182.95C32.4844 178.277 30.8068 173.69 28.8735 169.211L27.3768 165.672C26.8795 164.516 26.3916 163.365 25.8426 162.27C24.7851 160.169 23.6119 158.128 22.3286 156.159C21.1181 154.264 19.903 152.52 18.7535 150.895C17.6041 149.27 16.4968 147.778 15.4365 146.461C13.7704 144.371 11.941 142.419 9.96604 140.624C9.27167 139.989 8.71336 139.511 8.33334 139.203L7.89701 138.848C7.85074 138.803 7.79865 138.765 7.74219 138.734L7.88294 138.867C7.98615 138.961 8.12221 139.089 8.3005 139.246C8.67114 139.577 9.21537 140.065 9.90035 140.709C11.8404 142.532 13.6438 144.497 15.2958 146.589C16.3467 147.911 17.4352 149.408 18.5799 151.033C19.7247 152.658 20.9258 154.415 22.1315 156.301C23.4009 158.266 24.563 160.3 25.6127 162.393C26.157 163.483 26.6449 164.625 27.1375 165.79L28.6389 169.325C30.5662 173.807 32.2452 178.393 33.6683 183.064C34.8111 186.882 35.5964 190.799 36.0142 194.766" fill="#E0E0E0"/>
<path d="M25.7659 162.242C25.8302 162.043 25.8758 161.838 25.9019 161.631C25.977 161.237 26.0661 160.683 26.1647 159.953C26.3664 158.532 26.5728 156.561 26.798 154.392C27.0232 152.222 27.2672 150.256 27.4783 148.844C27.5862 148.138 27.6801 147.565 27.7458 147.171C27.7972 146.969 27.8239 146.76 27.8255 146.551C27.7438 146.742 27.684 146.943 27.6472 147.148C27.5487 147.536 27.4267 148.095 27.2954 148.811C27.0279 150.232 26.7605 152.189 26.54 154.363C26.3195 156.538 26.1318 158.447 25.9817 159.93C25.9113 160.598 25.8503 161.162 25.8034 161.616C25.7669 161.823 25.7543 162.033 25.7659 162.242Z" fill="#E0E0E0"/>
<path d="M7.60938 158.811C7.84811 158.866 8.09178 158.896 8.33658 158.901C8.80575 158.944 9.47666 159.001 10.3071 159.096C11.9679 159.276 14.2575 159.607 16.7628 160.086C19.2682 160.564 21.5249 161.104 23.1435 161.535C23.9551 161.749 24.6073 161.933 25.0577 162.061C25.2881 162.142 25.5252 162.203 25.7661 162.241C25.5494 162.126 25.3214 162.034 25.0858 161.967C24.6448 161.806 23.9974 161.592 23.2092 161.355C21.5999 160.882 19.3479 160.308 16.8332 159.825C14.6857 159.408 12.5184 159.103 10.3399 158.911C9.50481 158.835 8.82921 158.807 8.36004 158.797C8.1099 158.779 7.85868 158.784 7.60938 158.811Z" fill="#E0E0E0"/>
<path d="M33.668 182.609C33.668 182.609 33.7196 182.538 33.7946 182.386L34.1043 181.723C34.3717 181.145 34.7377 180.302 35.174 179.25C36.0513 177.151 37.168 174.214 38.3596 170.95C39.5513 167.686 40.6445 164.744 41.4749 162.631C41.8831 161.603 42.2162 160.736 42.4695 160.124L42.7323 159.442C42.7685 159.364 42.7952 159.281 42.812 159.196C42.7608 159.266 42.7182 159.342 42.6854 159.423C42.6009 159.599 42.4977 159.821 42.3757 160.086C42.1083 160.66 41.7423 161.508 41.306 162.555C40.4287 164.658 39.312 167.596 38.1204 170.86C36.9287 174.124 35.8355 177.066 35.0051 179.179L34.0105 181.685L33.7477 182.367C33.7128 182.445 33.686 182.526 33.668 182.609Z" fill="#E0E0E0"/>
<path d="M9.54688 174.758C9.622 174.802 9.70244 174.835 9.78615 174.858L10.4899 175.095L13.0703 175.943C15.2519 176.658 18.2546 177.677 21.5716 178.809C24.8886 179.941 27.9007 180.941 30.0964 181.609C31.1942 181.945 32.0856 182.206 32.7049 182.372L33.4181 182.561C33.4995 182.591 33.585 182.607 33.6714 182.609C33.5957 182.566 33.5154 182.533 33.4321 182.509L32.7331 182.272L30.148 181.429C27.9664 180.713 24.9871 179.695 21.6514 178.558C18.3156 177.421 15.3223 176.431 13.1266 175.763C12.0288 175.426 11.1374 175.166 10.5181 174.995L9.80023 174.806C9.71815 174.779 9.633 174.763 9.54688 174.758Z" fill="#E0E0E0"/>
<path d="M160.637 137.459V119.769H165.314V137.578L160.637 137.459Z" fill="#EBEBEB"/>
<path d="M165.398 137.459V119.769H170.071V137.578L165.398 137.459Z" fill="#E0E0E0"/>
<path d="M173.305 137.582V124.9H176.655V137.668L173.305 137.582Z" fill="#EBEBEB"/>
<path d="M176.721 137.582V124.9H180.071V137.668L176.721 137.582Z" fill="#E0E0E0"/>
<path d="M181.573 137.53H106.154V172.655H181.573V137.53Z" fill="#F5F5F5"/>
<path d="M179.779 170.997H107.879V139.378H179.779V170.997ZM108.348 170.523H179.31V139.852H108.348V170.523Z" fill="#E0E0E0"/>
<path d="M199.998 137.53H181.574V172.655H199.998V137.53Z" fill="#E0E0E0"/>
<path d="M108.115 149.161H179.546C179.571 149.161 179.595 149.151 179.612 149.133C179.63 149.115 179.64 149.091 179.64 149.066C179.64 149.041 179.63 149.017 179.612 148.999C179.595 148.982 179.571 148.972 179.546 148.972H108.115C108.09 148.972 108.067 148.982 108.049 148.999C108.031 149.017 108.021 149.041 108.021 149.066C108.021 149.091 108.031 149.115 108.049 149.133C108.067 149.151 108.09 149.161 108.115 149.161Z" fill="#E0E0E0"/>
<path d="M144.061 149.066C144.26 145.889 144.269 142.703 144.089 139.525C144.084 139.503 144.072 139.483 144.054 139.469C144.037 139.455 144.015 139.447 143.993 139.447C143.97 139.447 143.948 139.455 143.931 139.469C143.914 139.483 143.901 139.503 143.896 139.525C143.712 142.703 143.72 145.889 143.92 149.066C143.92 149.085 143.927 149.103 143.941 149.116C143.954 149.13 143.972 149.137 143.99 149.137C144.009 149.137 144.027 149.13 144.04 149.116C144.053 149.103 144.061 149.085 144.061 149.066Z" fill="#E0E0E0"/>
<path d="M163.288 144.296C163.288 144.49 163.231 144.679 163.124 144.84C163.018 145.002 162.866 145.127 162.689 145.202C162.511 145.276 162.316 145.295 162.127 145.257C161.939 145.22 161.766 145.126 161.63 144.989C161.494 144.852 161.402 144.677 161.364 144.487C161.327 144.297 161.346 144.1 161.42 143.92C161.493 143.741 161.618 143.588 161.777 143.48C161.937 143.372 162.125 143.315 162.317 143.315C162.574 143.315 162.821 143.418 163.004 143.602C163.186 143.786 163.288 144.036 163.288 144.296Z" fill="#E0E0E0"/>
<path d="M125.804 144.296C125.804 144.49 125.747 144.679 125.64 144.84C125.533 145.002 125.382 145.127 125.204 145.202C125.027 145.276 124.831 145.295 124.643 145.257C124.455 145.22 124.282 145.126 124.146 144.989C124.01 144.852 123.917 144.677 123.88 144.487C123.843 144.297 123.862 144.1 123.935 143.92C124.009 143.741 124.133 143.588 124.293 143.48C124.453 143.372 124.64 143.315 124.832 143.315C125.09 143.315 125.337 143.418 125.519 143.602C125.701 143.786 125.804 144.036 125.804 144.296Z" fill="#E0E0E0"/>
<path d="M144.803 155.188C144.804 155.383 144.748 155.574 144.641 155.737C144.534 155.9 144.382 156.027 144.203 156.102C144.025 156.177 143.828 156.197 143.638 156.159C143.448 156.121 143.274 156.027 143.137 155.889C143.001 155.751 142.908 155.575 142.87 155.384C142.833 155.192 142.852 154.993 142.927 154.813C143.001 154.633 143.127 154.479 143.288 154.371C143.449 154.263 143.639 154.206 143.832 154.207C144.09 154.207 144.337 154.31 144.519 154.494C144.701 154.678 144.803 154.928 144.803 155.188Z" fill="#E0E0E0"/>
<path d="M115.171 172.655L111.291 194.704H113.473L120.632 172.655H115.171Z" fill="#E0E0E0"/>
<path d="M176.24 172.655L179.491 194.742H177.305L170.783 172.655H176.24Z" fill="#E0E0E0"/>
<path d="M190.82 172.655L194.499 194.742H192.317L185.359 172.655H190.82Z" fill="#E0E0E0"/>
<path d="M144.739 165.127C144.74 165.322 144.683 165.513 144.576 165.676C144.469 165.839 144.317 165.966 144.139 166.041C143.96 166.116 143.763 166.136 143.574 166.098C143.384 166.06 143.21 165.966 143.073 165.828C142.936 165.69 142.843 165.514 142.806 165.323C142.768 165.131 142.788 164.932 142.862 164.752C142.937 164.572 143.063 164.418 143.224 164.31C143.385 164.202 143.574 164.145 143.768 164.146C144.025 164.147 144.271 164.251 144.453 164.435C144.635 164.618 144.738 164.867 144.739 165.127Z" fill="#E0E0E0"/>
<path d="M108.115 160.039H179.546C179.571 160.039 179.595 160.029 179.612 160.011C179.63 159.993 179.64 159.969 179.64 159.944C179.64 159.919 179.63 159.895 179.612 159.877C179.595 159.86 179.571 159.85 179.546 159.85H108.115C108.09 159.85 108.067 159.86 108.049 159.877C108.031 159.895 108.021 159.919 108.021 159.944C108.021 159.969 108.031 159.993 108.049 160.011C108.067 160.029 108.09 160.039 108.115 160.039Z" fill="#E0E0E0"/>
<path d="M185.299 7.76709H134.451V100.008H185.299V7.76709Z" fill="#EBEBEB"/>
<path d="M182.74 10.4438H136.48V97.2605H182.74V10.4438Z" fill="#FAFAFA"/>
<path d="M182.745 11.4672L136.48 70.8862V10.4438H182.745V11.4672Z" fill="#F5F5F5"/>
<path d="M183.744 35.4204H136.48V36.3442H183.744V35.4204Z" fill="#EBEBEB"/>
<path d="M183.744 56.0957H136.48V57.0195H183.744V56.0957Z" fill="#EBEBEB"/>
<path d="M183.744 76.7661H136.48V77.6899H183.744V76.7661Z" fill="#EBEBEB"/>
<path d="M158.447 35.8758V99.7197H160.784V35.8758H158.447Z" fill="#EBEBEB"/>
<path d="M146.451 10.4438H145.391V35.8801H146.451V10.4438Z" fill="#EBEBEB"/>
<path d="M155.584 10.4438H154.523V35.8801H155.584V10.4438Z" fill="#EBEBEB"/>
<path d="M164.717 10.4438H163.656V35.8801H164.717V10.4438Z" fill="#EBEBEB"/>
<path d="M173.845 10.4438H172.785V35.8801H173.845V10.4438Z" fill="#EBEBEB"/>
<path d="M134.45 6.2041H132.301V100.577H134.45V6.2041Z" fill="#F5F5F5"/>
<path d="M187.45 100.843L185.297 100.009V6.2041H187.45V100.843Z" fill="#E0E0E0"/>
<path d="M187.451 5.25195H132.301V7.76762H187.451V5.25195Z" fill="#E0E0E0"/>
<path d="M188.905 101.15H130.775V103.495H188.905V101.15Z" fill="#E0E0E0"/>
<path d="M185.297 100.008L188.905 101.15H130.775L134.449 100.008H185.297Z" fill="#EBEBEB"/>
<path d="M54.528 9.33105H3.67969V101.572H54.528V9.33105Z" fill="#EBEBEB"/>
<path d="M51.9688 12.0024H5.70898V98.8191H51.9688V12.0024Z" fill="#FAFAFA"/>
<path d="M51.9688 13.0258L5.70898 72.4496V12.0024H51.9688V13.0258Z" fill="#F5F5F5"/>
<path d="M52.9728 36.9795H5.70898V37.9033H52.9728V36.9795Z" fill="#EBEBEB"/>
<path d="M52.9728 57.6543H5.70898V58.5781H52.9728V57.6543Z" fill="#EBEBEB"/>
<path d="M52.9728 78.3296H5.70898V79.2534H52.9728V78.3296Z" fill="#EBEBEB"/>
<path d="M27.6719 37.4387L27.6719 101.283H30.0083L30.0083 37.4387H27.6719Z" fill="#EBEBEB"/>
<path d="M15.6795 12.0024H14.6191V37.4387H15.6795V12.0024Z" fill="#EBEBEB"/>
<path d="M24.8084 12.0024H23.748V37.4387H24.8084V12.0024Z" fill="#EBEBEB"/>
<path d="M33.9451 12.0024H32.8848V37.4387H33.9451V12.0024Z" fill="#EBEBEB"/>
<path d="M43.074 12.0024H42.0137V37.4387H43.074V12.0024Z" fill="#EBEBEB"/>
<path d="M3.67417 7.76709H1.52539V102.14H3.67417V7.76709Z" fill="#F5F5F5"/>
<path d="M56.6761 102.401L54.5273 101.572V7.76709H56.6761V102.401Z" fill="#E0E0E0"/>
<path d="M56.6759 6.81543H1.52539V9.3311H56.6759V6.81543Z" fill="#E0E0E0"/>
<path d="M58.1297 102.714H0V105.059H58.1297V102.714Z" fill="#E0E0E0"/>
<path d="M54.5265 101.572L58.1344 102.714H0L3.67827 101.572H54.5265Z" fill="#EBEBEB"/>
<path d="M195.187 194.742C195.187 194.813 152.071 194.865 98.9 194.865C45.7293 194.865 2.60352 194.813 2.60352 194.742C2.60352 194.671 45.7059 194.619 98.9 194.619C152.094 194.619 195.187 194.675 195.187 194.742Z" fill="#263238"/>
<path d="M123.663 72.7021C123.372 73.0575 123.358 76.0185 123.358 76.0185C123.358 76.0185 116.485 87.8625 115.528 88.0236C114.571 88.1846 110.405 79.8086 110.405 79.8086L106.121 83.7881C106.121 83.7881 108.354 94.372 115.336 96.1865C118.62 97.044 124.381 86.4933 128.219 77.7098C128.28 77.5724 130.269 72.7969 130.269 72.7969L123.663 72.7021Z" fill="#F2D9B6"/>
<path d="M118.907 43.4867L116.877 44.1543L131.087 88.2103L133.116 87.5428L118.907 43.4867Z" fill="#263238"/>
<path d="M117.835 43.7058L115.807 44.374L130.031 88.3911L132.059 87.7229L117.835 43.7058Z" fill="#455A64"/>
<path d="M126.758 17.148L97.4668 26.7812L105.169 50.6607L134.46 41.0274L126.758 17.148Z" fill="#00378F"/>
<g opacity="0.3">
<path d="M126.758 17.148L97.4668 26.7812L105.169 50.6607L134.46 41.0274L126.758 17.148Z" fill="black"/>
</g>
<path d="M125.707 17.4927L96.416 27.126L104.118 51.0054L133.409 41.3722L125.707 17.4927Z" fill="#00378F"/>
<path d="M111.471 33.5979L112.461 33.2521L113.577 29.462L112.888 27.458C112.888 27.458 114.389 26.8231 115.111 29.5094C115.834 32.1956 115.801 31.4565 115.801 31.4565C115.801 31.4565 119.062 30.3242 119.432 30.509C119.7 30.6464 120.915 33.8822 121.562 35.6446C121.731 36.0649 121.756 36.5301 121.633 36.9662C121.509 37.4023 121.245 37.7843 120.882 38.0513C120.778 38.1202 120.666 38.1774 120.549 38.2218C119.733 38.5061 115.351 39.302 115.351 39.302L113.638 39.9037L111.471 33.5979Z" fill="white"/>
<path d="M108.439 34.0477L111.414 40.6899L113.112 40.0929L110.795 33.375L108.439 34.0477Z" fill="white"/>
<path d="M130.812 72.1522C130.811 72.1887 130.801 72.2245 130.784 72.2564C130.582 72.7302 129.634 74.0709 129.311 74.0046C128.987 73.9383 128.452 74.0046 128.602 73.1424C128.919 72.4975 129.284 71.8782 129.695 71.29C129.695 71.29 129.949 70.9773 130.667 71.2568C131.108 71.4321 130.812 72.1522 130.812 72.1522Z" fill="#F2D9B6"/>
<path d="M129.881 70.7025C129.879 70.7425 129.868 70.7815 129.848 70.8162C129.614 71.3658 128.333 73.5925 128.009 73.5356C127.685 73.4787 126.982 72.8629 127.094 72.536C127.207 72.2091 128.788 69.7834 128.788 69.7834C128.788 69.7834 129.065 69.4139 129.782 69.6934C130.223 69.864 129.881 70.7025 129.881 70.7025Z" fill="#F2D9B6"/>
<path d="M128.795 69.5559C128.795 69.5559 128.795 69.608 128.762 69.6744C128.532 70.2192 127.247 72.4506 126.923 72.389C126.599 72.3274 125.896 71.721 126.008 71.3941C126.121 71.0672 127.707 68.6368 127.707 68.6368C127.707 68.6368 127.979 68.272 128.696 68.5468C129.142 68.7221 128.795 69.5559 128.795 69.5559Z" fill="#F2D9B6"/>
<path d="M127.707 68.4432C127.707 68.4432 127.707 68.4906 127.674 68.5569C127.44 69.1018 126.159 71.3332 125.835 71.2763C125.511 71.2195 124.808 70.6036 124.92 70.2767C125.033 69.9498 126.614 67.5241 126.614 67.5241C126.614 67.5241 126.891 67.1546 127.609 67.4341C128.054 67.6047 127.707 68.4432 127.707 68.4432Z" fill="#F2D9B6"/>
<path d="M128.33 73.4409C128.611 73.1277 128.851 72.7789 129.043 72.4033C129.276 72.0617 129.467 71.6926 129.611 71.3042C129.329 71.6151 129.089 71.9624 128.898 72.337C128.664 72.68 128.474 73.0507 128.33 73.4409Z" fill="#7C4435"/>
<path d="M127.033 72.7018C127.41 72.2408 127.741 71.7442 128.023 71.2189C128.355 70.7224 128.641 70.1958 128.877 69.646C128.506 70.1129 128.175 70.6105 127.887 71.1336C127.558 71.6302 127.272 72.1549 127.033 72.7018Z" fill="#7C4435"/>
<g opacity="0.78">
<path d="M125.947 71.3371C126.286 70.9579 126.583 70.5434 126.834 70.1006C127.131 69.6889 127.383 69.2457 127.585 68.7788C127.248 69.1613 126.951 69.5772 126.698 70.0201C126.401 70.4305 126.15 70.8721 125.947 71.3371Z" fill="#7C4435"/>
</g>
<path d="M124.077 76.5914L123.607 74.5116C123.405 73.6038 123.556 72.652 124.03 71.8538L124.391 71.2427L129.083 73.6352C129.083 73.6352 127.774 75.0091 126.643 74.1374C127.408 75.0849 127.417 76.8378 126.929 78.207L124.077 76.5914Z" fill="#F2D9B6"/>
<path d="M127.054 76.0893C127.026 76.0893 127.054 75.8524 127.012 75.445C126.919 74.8894 126.633 74.3854 126.205 74.0237L125.774 73.6778L126.299 73.8484L127.463 74.2274H127.439C127.693 74.2715 127.955 74.2419 128.193 74.1422C128.431 74.0424 128.637 73.8765 128.786 73.6636C128.809 73.6257 128.828 73.5831 128.842 73.5594L128.903 73.711C127.608 73.1188 126.444 72.5645 125.619 72.1144C125.164 71.8988 124.735 71.6334 124.338 71.3232C124.803 71.5072 125.256 71.7208 125.694 71.9628C126.529 72.3703 127.697 72.9103 128.978 73.4883L129.081 73.5357L129.044 73.6399C129.021 73.6919 128.996 73.7425 128.969 73.7915C128.798 74.0632 128.542 74.2687 128.241 74.3743C127.967 74.4689 127.675 74.4981 127.387 74.4595H127.364L126.205 74.0521L126.304 73.8768C126.761 74.2731 127.047 74.8341 127.101 75.4402C127.143 75.6569 127.127 75.881 127.054 76.0893Z" fill="#7C4435"/>
<path d="M128.741 72.9195C128.788 72.9195 128.675 73.1659 128.703 73.507C128.707 73.5958 128.738 73.6813 128.792 73.7516C128.846 73.822 128.92 73.8739 129.004 73.9002C129.118 73.9069 129.231 73.8834 129.333 73.8318C129.435 73.7803 129.522 73.7026 129.585 73.6065C129.928 73.1564 130.27 72.7537 130.482 72.4553C130.693 72.1568 130.81 71.9483 130.847 71.9815C130.885 72.0147 130.81 72.2231 130.627 72.5642C130.367 72.9886 130.081 73.3953 129.768 73.7818C129.679 73.9105 129.555 74.0115 129.412 74.0735C129.269 74.1354 129.111 74.1558 128.957 74.1324C128.829 74.0945 128.718 74.0147 128.641 73.9057C128.563 73.7967 128.524 73.6647 128.53 73.5307C128.528 73.3658 128.567 73.2032 128.642 73.0569C128.689 72.9574 128.727 72.9101 128.741 72.9195Z" fill="#7C4435"/>
<path d="M68.3847 73.8862C68.3847 73.8862 74.8733 86.7631 75.8304 86.9478C76.7875 87.1326 80.7754 79.1734 80.7754 79.1734L86.823 84.02C86.823 84.02 82.8773 93.4478 76.7453 96.2762C73.6488 97.6975 67.7044 86.5783 63.862 77.7995L61.8164 72.915" fill="#F2D9B6"/>
<path d="M69.1866 76.3594C69.1866 76.3594 69.0224 75.7056 68.389 73.8863L68.4547 69.2577C68.4547 69.2577 67.6618 68.6892 67.5164 70.8069C67.4851 71.0489 67.3704 71.2721 67.1923 71.4372C67.0143 71.6023 66.7843 71.6987 66.5428 71.7094C66.3013 71.7202 66.0637 71.6446 65.872 71.496C65.6802 71.3474 65.5465 71.1353 65.4943 70.8969C65.4071 70.5789 65.4154 70.242 65.5179 69.9287C65.6205 69.6155 65.8128 69.34 66.0704 69.1371C66.3281 68.9342 66.6396 68.8131 66.9654 68.789C67.2913 68.7649 67.6169 68.839 67.9011 69.0019C67.9011 69.0019 68.5298 68.765 68.3703 68.2581C68.2107 67.7511 66.2918 67.2537 65.3066 68.1681C64.9015 68.5486 64.5816 69.0122 64.3683 69.5277C64.3683 69.5277 62.7215 65.515 62.3931 65.6334C62.0647 65.7519 61.7456 66.2067 63.5848 70.589C63.5848 70.589 61.816 67.2726 61.5392 66.8936C61.2624 66.5146 60.5493 66.4909 61.0043 67.6043L62.4588 71.1433C62.4588 71.1433 61.0184 69.1393 60.8917 68.9829C60.5586 68.5755 60.1317 68.8503 60.3897 69.4804L61.3984 72.0103L64.0915 78.2497H64.0492" fill="#F2D9B6"/>
<path d="M63.4727 73.2607C63.4727 73.2607 63.6275 73.2986 63.8621 73.3886C64.174 73.5064 64.4493 73.7059 64.6596 73.9666L64.73 74.0472L64.7582 73.943C64.7961 73.8233 64.8416 73.7062 64.8942 73.5924C65.0822 73.2102 65.3651 72.8837 65.7153 72.6448C65.9827 72.4648 66.1844 72.4032 66.1844 72.3843C66.0046 72.4064 65.8326 72.4714 65.6824 72.5738C65.3034 72.7962 64.9968 73.1255 64.8004 73.5213C64.7433 73.6419 64.6962 73.7671 64.6596 73.8956L64.7582 73.8719C64.5318 73.6 64.2318 73.4008 63.8949 73.2986C63.7589 73.2536 63.6144 73.2407 63.4727 73.2607Z" fill="#7C4435"/>
<path d="M91.8427 49.4312C91.435 48.7168 90.8185 48.1471 90.0777 47.8002C89.3369 47.4534 88.5081 47.3462 87.7046 47.4935C86.9064 47.6632 86.1589 48.02 85.5224 48.5352C84.8859 49.0504 84.3782 49.7095 84.0405 50.4592C83.3802 51.9756 83.2158 53.665 83.5713 55.2821C83.8762 56.9024 84.5659 58.5984 84.017 60.1429C83.6209 61.0711 82.9696 61.8652 82.1403 62.4312C81.3139 62.989 80.5298 63.6081 79.7945 64.2836C79.4243 64.6237 79.1315 65.0408 78.9363 65.5062C78.7411 65.9715 78.6481 66.4741 78.6638 66.9793C78.7623 67.9836 79.6678 68.9264 80.6578 68.7938C79.2503 69.8834 78.9406 71.9964 79.6021 73.6403C80.2637 75.2843 81.7415 76.4829 83.3555 77.203C84.6785 77.7905 86.2033 78.0937 87.578 77.6199C88.2607 77.3477 88.8789 76.9331 89.3922 76.4033C89.9055 75.8735 90.3025 75.2404 90.5572 74.5452C91.061 73.1516 91.2998 71.6744 91.2609 70.1914C91.2938 67.7894 91.0357 65.2927 89.8112 63.2366C89.9473 64.0514 90.9982 64.4826 91.7395 64.132C92.0985 63.9308 92.3897 63.6255 92.5753 63.2557C92.761 62.8858 92.8326 62.4683 92.781 62.0569C92.6596 61.2343 92.2893 60.4698 91.7207 59.8681C91.1859 59.238 90.5572 58.7027 90.0176 58.082C88.9432 56.8455 88.2348 55.1826 88.4928 53.5624C88.7509 51.9421 90.1912 50.4734 91.8145 50.554" fill="#263238"/>
<path d="M80.015 62.4973C80.015 62.4973 80.0619 62.412 80.1041 62.232C80.1544 61.9733 80.1129 61.7049 79.9868 61.474C79.8958 61.2917 79.753 61.1411 79.5766 61.0415C79.4002 60.9419 79.1983 60.8978 78.9969 60.915C78.7345 60.937 78.4851 61.0396 78.2821 61.209C78.0792 61.3784 77.9324 61.6064 77.8615 61.8625C77.7958 62.1818 77.828 62.5138 77.9537 62.8142C78.0794 63.1146 78.2927 63.3693 78.5653 63.5443C78.886 63.7407 79.2506 63.8523 79.6253 63.8688C80 63.8854 80.3728 63.8064 80.7093 63.6391C81.47 63.2679 82.0896 62.6556 82.4734 61.8956C82.8966 61.0793 83.1096 60.1686 83.0927 59.2473C83.0477 58.3213 82.8756 57.4061 82.5813 56.5279C82.3053 55.686 82.1675 54.8043 82.1731 53.9175C82.2802 52.4015 82.9386 50.9791 84.0217 49.9237C84.7344 49.2204 85.5632 48.648 86.4707 48.2324C86.7897 48.0855 87.0478 47.9908 87.2214 47.9244C87.3085 47.8876 87.4 47.8622 87.4935 47.8486C87.4119 47.8955 87.3273 47.9367 87.2401 47.9718C87.0712 48.0476 86.8226 48.1566 86.5129 48.3177C85.6437 48.7624 84.8515 49.3464 84.1671 50.0469C83.1386 51.0837 82.5183 52.4627 82.4218 53.927C82.4236 54.7888 82.563 55.6446 82.8347 56.4616C83.138 57.3592 83.3148 58.2953 83.3601 59.2426C83.3774 60.2056 83.153 61.1574 82.708 62.0093C82.2978 62.8124 81.6388 63.458 80.8313 63.8475C80.4606 64.0257 80.0515 64.107 79.6416 64.0838C79.2317 64.0606 78.8342 63.9338 78.4855 63.7149C78.1824 63.5151 77.9472 63.2264 77.8113 62.8876C77.6755 62.5489 77.6455 62.1763 77.7254 61.8198C77.8035 61.5276 77.9705 61.2675 78.2028 61.0762C78.4352 60.885 78.7211 60.7722 79.0203 60.7539C79.2662 60.7372 79.5106 60.8039 79.7147 60.9434C79.882 61.0656 80.0159 61.2286 80.1041 61.4171C80.2318 61.6688 80.2603 61.96 80.1839 62.232C80.1519 62.334 80.0936 62.4256 80.015 62.4973Z" fill="#263238"/>
<path d="M61.7385 189.503L61.41 190.763C61.41 190.763 56.892 198.187 57.4268 198.879C57.788 199.345 58.2812 199.69 58.841 199.867C59.4008 200.044 60.0007 200.044 60.5608 199.869C62.1326 199.471 68.7666 193.104 68.7666 193.104L69.1466 192.09L61.7385 189.503Z" fill="#00378F"/>
<g opacity="0.3">
<path d="M57.8759 197.196C57.8759 197.196 59.8323 196.325 60.9583 198.874C60.9583 198.874 61.8075 198.556 64.1533 196.571C66.4992 194.586 68.7652 192.648 68.7652 192.648C68.7652 192.648 69.0092 192.454 68.9341 192.648C68.8591 192.843 68.7652 193.188 68.7652 193.188L64.2378 197.22C64.2378 197.22 61.5213 199.589 60.841 199.755C60.1607 199.921 59.4757 200.176 58.6125 199.783C58.0596 199.581 57.6001 199.179 57.3223 198.656C57.3223 198.561 57.8759 197.196 57.8759 197.196Z" fill="black"/>
</g>
<path d="M61.2225 199.712C61.2225 199.712 61.1521 199.457 60.9832 199.078C60.7678 198.586 60.4473 198.15 60.0449 197.798C59.6352 197.456 59.154 197.211 58.6374 197.083C58.2386 196.984 57.9758 196.984 57.9805 196.955C58.2069 196.918 58.4383 196.928 58.6608 196.984C59.2065 197.085 59.7171 197.326 60.1434 197.685C60.5644 198.049 60.8872 198.515 61.0817 199.04C61.1772 199.251 61.2253 199.48 61.2225 199.712Z" fill="#263238"/>
<path d="M69.1475 192.326C69.1162 192.367 69.08 192.404 69.0396 192.435L68.7253 192.72L67.5477 193.748L63.6208 197.107C62.917 197.748 62.1604 198.328 61.3594 198.841C60.6881 199.262 59.8993 199.451 59.1121 199.381C58.5759 199.314 58.0787 199.063 57.7046 198.67C57.5692 198.529 57.4666 198.359 57.4043 198.173C57.501 198.343 57.6158 198.502 57.7468 198.646C58.1141 199.013 58.594 199.241 59.1074 199.295C59.8698 199.347 60.6289 199.153 61.2749 198.741C62.0648 198.225 62.8117 197.646 63.5082 197.007L67.4632 193.691L68.669 192.701L69.0021 192.435C69.0959 192.36 69.1444 192.323 69.1475 192.326Z" fill="#263238"/>
<path d="M61.9847 195.449C61.6895 195.302 61.4097 195.126 61.1495 194.923C60.8614 194.764 60.5896 194.577 60.3379 194.364C60.6609 194.447 60.964 194.596 61.2293 194.8C61.52 194.965 61.7765 195.185 61.9847 195.449Z" fill="#263238"/>
<path d="M62.9581 194.382C62.6046 194.267 62.261 194.123 61.9306 193.951C61.5827 193.82 61.2455 193.662 60.9219 193.478C61.6588 193.623 62.3544 193.932 62.9581 194.382Z" fill="#263238"/>
<path d="M63.8539 193.463C63.8257 193.497 63.4176 193.137 62.8217 192.843C62.2259 192.549 61.7004 192.44 61.7051 192.397C62.1195 192.396 62.527 192.504 62.8874 192.71C63.2682 192.873 63.6011 193.133 63.8539 193.463Z" fill="#263238"/>
<path d="M64.3772 192.374C64.3491 192.412 63.9691 192.132 63.4389 191.9C62.9087 191.668 62.4536 191.564 62.463 191.521C63.1824 191.554 63.8629 191.86 64.3678 192.379L64.3772 192.374Z" fill="#263238"/>
<path d="M64.1633 191.345C63.9557 191.254 63.7665 191.126 63.605 190.966C63.4196 190.804 63.2485 190.627 63.0936 190.435C63.0021 190.324 62.9175 190.207 62.8402 190.085C62.79 190.019 62.7504 189.945 62.7229 189.867C62.7041 189.818 62.6986 189.765 62.7068 189.714C62.7151 189.662 62.7368 189.614 62.7698 189.573C62.8403 189.514 62.9263 189.478 63.0171 189.468C63.108 189.458 63.1998 189.475 63.2812 189.516C63.425 189.572 63.5536 189.661 63.6566 189.777C63.8281 189.964 63.9464 190.195 63.9991 190.445C64.0341 190.608 64.0498 190.775 64.046 190.942C64.046 191.061 64.046 191.122 64.0178 191.122C63.9897 191.122 64.0178 190.862 63.8958 190.469C63.8359 190.244 63.7196 190.038 63.5581 189.872C63.4642 189.776 63.3526 189.701 63.2296 189.649C63.1744 189.62 63.1124 189.607 63.0504 189.612C62.9885 189.616 62.9288 189.637 62.8778 189.673C62.8074 189.748 62.8778 189.886 62.9575 190.004C63.0328 190.124 63.1142 190.239 63.2015 190.35C63.3443 190.542 63.5011 190.722 63.6706 190.89C63.9568 191.175 64.1633 191.326 64.1633 191.345Z" fill="#263238"/>
<path d="M64.0501 191.213C64.0553 191.15 64.0728 191.089 64.1017 191.033C64.1715 190.877 64.2614 190.73 64.3691 190.597C64.5352 190.402 64.7377 190.241 64.965 190.124C65.0988 190.053 65.2406 189.999 65.3872 189.962C65.4738 189.943 65.5634 189.943 65.65 189.962C65.7018 189.975 65.7493 190.001 65.7874 190.039C65.8255 190.076 65.8526 190.124 65.8658 190.176C65.869 190.264 65.853 190.353 65.8189 190.434C65.7849 190.516 65.7337 190.59 65.6687 190.649C65.5672 190.764 65.4522 190.866 65.3262 190.953C65.1146 191.096 64.8744 191.192 64.6225 191.232C64.4548 191.261 64.2835 191.261 64.1158 191.232C63.9985 191.232 63.9375 191.185 63.9375 191.175C64.1607 191.18 64.3839 191.162 64.6037 191.123C64.8367 191.072 65.057 190.974 65.2512 190.834C65.3654 190.752 65.4693 190.657 65.5608 190.55C65.6109 190.506 65.651 190.451 65.6785 190.39C65.706 190.328 65.7203 190.262 65.7203 190.195C65.7203 190.086 65.5514 190.062 65.4154 190.09C65.2792 190.123 65.147 190.17 65.0213 190.233C64.807 190.337 64.6131 190.48 64.4489 190.654C64.3052 190.832 64.172 191.019 64.0501 191.213Z" fill="#263238"/>
<path d="M67.8595 191.73C67.6475 191.682 67.4266 191.695 67.2215 191.768C66.7355 191.977 66.3338 192.346 66.0814 192.815C65.826 193.281 65.721 193.816 65.7811 194.345C65.828 194.757 65.9359 194.994 65.9125 195.003C65.7812 194.814 65.7004 194.594 65.6779 194.364C65.583 193.806 65.6807 193.232 65.9547 192.739C66.2202 192.24 66.66 191.858 67.1886 191.668C67.2968 191.622 67.4147 191.603 67.5317 191.614C67.6488 191.625 67.7614 191.664 67.8595 191.73Z" fill="#263238"/>
<path d="M65.18 194.724C64.7047 195.261 64.1584 195.73 63.5566 196.116C63.7772 195.832 64.0343 195.579 64.3214 195.363C64.5759 195.11 64.8651 194.894 65.18 194.724Z" fill="#263238"/>
<path d="M66.0774 194.24C66.1196 194.24 66.1712 194.335 66.1994 194.458C66.2275 194.581 66.1994 194.69 66.1759 194.704C66.1524 194.718 66.0821 194.619 66.0539 194.486C66.0258 194.354 66.0398 194.245 66.0774 194.24Z" fill="#263238"/>
<path d="M66.1888 193.308C66.231 193.308 66.2357 193.431 66.1888 193.554C66.1419 193.677 66.1044 193.771 66.0668 193.766C66.0293 193.762 66.0152 193.653 66.0668 193.52C66.1184 193.388 66.1513 193.293 66.1888 193.308Z" fill="#263238"/>
<path d="M66.6883 192.511C66.7211 192.544 66.6883 192.629 66.5944 192.733C66.5006 192.837 66.4302 192.899 66.3974 192.88C66.3645 192.861 66.3974 192.752 66.4771 192.644C66.5569 192.535 66.6648 192.483 66.6883 192.511Z" fill="#263238"/>
<path d="M67.4789 192.019C67.4789 192.057 67.4132 192.132 67.3006 192.184C67.188 192.236 67.0801 192.255 67.0567 192.222C67.0332 192.189 67.1176 192.109 67.2396 192.052C67.3616 191.995 67.4695 191.981 67.4789 192.019Z" fill="#263238"/>
<path d="M68.4088 191.928C68.4088 191.966 68.2962 192.004 68.1742 192.004C68.0522 192.004 67.9443 191.971 67.9396 191.928C67.9349 191.886 68.0381 191.857 68.1742 191.853C68.3102 191.848 68.4135 191.867 68.4088 191.928Z" fill="#263238"/>
<path d="M120.787 192.08L120.754 191.185L111.76 191.445L111.835 194.401H112.393C114.87 194.463 124.981 194.553 126.618 194.037C128.439 193.482 120.787 192.08 120.787 192.08Z" fill="#00378F"/>
<g opacity="0.3">
<path d="M115.083 194.25C114.92 193.531 114.492 192.901 113.887 192.487C113.27 192.056 112.522 191.86 111.775 191.933L111.846 194.302L115.083 194.25Z" fill="black"/>
</g>
<g opacity="0.3">
<path d="M124.534 192.876C124.534 192.876 127.223 193.525 126.904 193.947C126.585 194.368 116.357 194.638 111.834 194.387V194.198L123.765 193.98C123.765 193.98 124.014 192.923 124.534 192.876Z" fill="black"/>
</g>
<path d="M111.703 194.211H111.858H112.304L113.932 194.235C115.306 194.235 117.216 194.235 119.308 194.183C121.401 194.131 123.306 194.041 124.68 193.961L126.308 193.852L126.749 193.814H126.899H126.745H126.304L124.676 193.885C123.301 193.951 121.391 194.027 119.304 194.079C117.216 194.131 115.306 194.155 113.932 194.164H112.304H111.858L111.703 194.211Z" fill="#263238"/>
<path d="M123.775 194.122C123.876 193.59 124.168 193.114 124.596 192.786C124.326 192.886 124.101 193.081 123.963 193.336C123.802 193.564 123.735 193.845 123.775 194.122Z" fill="#263238"/>
<path d="M121.098 192.932C121.126 192.932 121.248 192.8 121.37 192.605C121.492 192.411 121.577 192.236 121.548 192.222C121.52 192.207 121.403 192.354 121.276 192.553C121.15 192.752 121.075 192.918 121.098 192.932Z" fill="#263238"/>
<path d="M120.362 192.596C120.385 192.596 120.521 192.52 120.671 192.388C120.821 192.255 120.929 192.127 120.906 192.108C120.882 192.09 120.746 192.179 120.596 192.312C120.446 192.444 120.343 192.572 120.362 192.596Z" fill="#263238"/>
<path d="M119.877 191.815C120.186 191.884 120.506 191.884 120.815 191.815C120.663 191.77 120.504 191.756 120.346 191.773C120.189 191.753 120.029 191.768 119.877 191.815Z" fill="#263238"/>
<path d="M119.703 191.256C119.862 191.351 120.044 191.397 120.229 191.388C120.413 191.414 120.601 191.385 120.768 191.303C120.59 191.289 120.411 191.289 120.233 191.303C120.058 191.274 119.881 191.258 119.703 191.256Z" fill="#263238"/>
<path d="M121.4 192.194C121.591 192.225 121.786 192.225 121.977 192.194C122.183 192.164 122.385 192.116 122.583 192.052C122.704 192.016 122.82 191.967 122.93 191.905C122.995 191.867 123.045 191.806 123.071 191.734C123.077 191.693 123.072 191.651 123.055 191.613C123.038 191.576 123.011 191.543 122.977 191.521C122.755 191.425 122.508 191.404 122.274 191.463C122.039 191.521 121.83 191.654 121.677 191.843C121.592 191.951 121.533 192.078 121.504 192.213C121.491 192.259 121.491 192.308 121.504 192.355C121.559 192.184 121.643 192.024 121.752 191.881C121.876 191.734 122.039 191.625 122.221 191.568C122.444 191.483 122.689 191.483 122.911 191.568C123.005 191.63 122.972 191.729 122.869 191.791C122.769 191.85 122.661 191.896 122.55 191.928C122.358 191.996 122.162 192.05 121.963 192.089C121.597 192.17 121.4 192.175 121.4 192.194Z" fill="#263238"/>
<path d="M121.527 192.218C121.593 192.103 121.614 191.967 121.583 191.839C121.554 191.698 121.491 191.566 121.4 191.455C121.348 191.377 121.278 191.312 121.196 191.266C121.115 191.22 121.024 191.194 120.931 191.189C120.875 191.201 120.826 191.234 120.794 191.282C120.762 191.33 120.751 191.389 120.762 191.445C120.776 191.532 120.811 191.613 120.865 191.682C120.944 191.802 121.039 191.91 121.147 192.004C121.241 192.1 121.357 192.172 121.484 192.213C121.484 192.213 121.367 192.118 121.203 191.952C121.106 191.857 121.021 191.751 120.95 191.635C120.87 191.521 120.809 191.317 120.95 191.289C121.027 191.295 121.101 191.318 121.169 191.357C121.236 191.395 121.294 191.448 121.339 191.512C121.421 191.613 121.481 191.731 121.513 191.857C121.528 191.977 121.532 192.097 121.527 192.218Z" fill="#263238"/>
<path d="M111.823 191.928C111.823 191.928 112.076 191.895 112.484 191.928C113.006 191.974 113.508 192.154 113.943 192.449C114.357 192.746 114.682 193.152 114.881 193.624C115.027 193.979 115.05 194.221 115.069 194.221C115.079 194.165 115.079 194.107 115.069 194.05C115.047 193.897 115.01 193.746 114.957 193.6C114.775 193.103 114.448 192.673 114.018 192.369C113.569 192.058 113.042 191.881 112.498 191.857C112.333 191.851 112.169 191.861 112.005 191.885C111.879 191.881 111.818 191.9 111.823 191.928Z" fill="#263238"/>
<path d="M116.184 193.397C116.614 193.482 117.054 193.513 117.493 193.487C117.932 193.493 118.372 193.448 118.802 193.354C118.802 193.321 118.215 193.354 117.493 193.383C116.77 193.411 116.188 193.349 116.184 193.397Z" fill="#263238"/>
<path d="M114.428 193.444C114.405 193.444 114.48 193.558 114.541 193.681C114.602 193.804 114.644 193.917 114.672 193.913C114.7 193.908 114.714 193.78 114.639 193.638C114.564 193.496 114.447 193.421 114.428 193.444Z" fill="#263238"/>
<path d="M113.744 192.686C113.744 192.686 113.782 192.795 113.88 192.88C113.979 192.966 114.068 193.018 114.091 192.999C114.115 192.98 114.049 192.89 113.955 192.805C113.861 192.72 113.763 192.668 113.744 192.686Z" fill="#263238"/>
<path d="M112.788 192.36C112.788 192.388 112.914 192.36 113.046 192.426C113.177 192.492 113.275 192.526 113.299 192.507C113.322 192.488 113.243 192.374 113.078 192.327C112.914 192.28 112.778 192.336 112.788 192.36Z" fill="#263238"/>
<path d="M112.107 192.213C112.107 192.213 112.15 192.279 112.225 192.303C112.3 192.326 112.37 192.303 112.38 192.303C112.389 192.303 112.337 192.232 112.262 192.208C112.187 192.184 112.117 192.184 112.107 192.213Z" fill="#263238"/>
<path d="M121.401 191.455L110.831 114.009L110.53 109.02L84.0507 107.75L82.9294 111.953C79.2136 125.18 60.4375 189.143 60.4375 189.143L69.6097 192.066L96.9152 118.775L109.625 191.317L121.401 191.455Z" fill="#263238"/>
<path d="M109.203 108.262C109.133 108.262 109.062 108.115 109.044 107.921C109.025 107.727 109.067 107.561 109.133 107.556C109.198 107.552 109.269 107.703 109.288 107.897C109.306 108.092 109.25 108.257 109.203 108.262Z" fill="#455A64"/>
<path d="M109.461 111.081C109.391 111.081 109.307 110.778 109.269 110.389C109.232 110.001 109.269 109.679 109.321 109.669C109.372 109.66 109.471 109.972 109.513 110.366C109.555 110.759 109.527 111.071 109.461 111.081Z" fill="#455A64"/>
<path d="M109.747 113.895C109.681 113.895 109.597 113.597 109.554 113.208C109.512 112.82 109.554 112.497 109.601 112.488C109.648 112.479 109.756 112.791 109.798 113.18C109.841 113.568 109.817 113.89 109.747 113.895Z" fill="#455A64"/>
<path d="M110.053 116.714C109.983 116.714 109.894 116.411 109.851 116.022C109.809 115.634 109.851 115.311 109.898 115.307C109.945 115.302 110.053 115.605 110.095 115.994C110.138 116.382 110.142 116.704 110.053 116.714Z" fill="#455A64"/>
<path d="M110.361 119.528C110.295 119.528 110.206 119.225 110.159 118.837C110.112 118.448 110.136 118.126 110.202 118.121C110.267 118.116 110.361 118.42 110.403 118.808C110.446 119.197 110.427 119.519 110.361 119.528Z" fill="#455A64"/>
<path d="M110.683 122.343C110.618 122.343 110.529 122.039 110.482 121.651C110.435 121.263 110.458 120.94 110.524 120.936C110.59 120.931 110.679 121.234 110.726 121.623C110.773 122.011 110.754 122.333 110.683 122.343Z" fill="#455A64"/>
<path d="M111.014 125.151C110.943 125.151 110.854 124.853 110.807 124.464C110.76 124.076 110.779 123.754 110.845 123.744C110.911 123.735 111.004 124.048 111.051 124.436C111.098 124.825 111.079 125.128 111.014 125.151Z" fill="#455A64"/>
<path d="M111.351 127.971C111.281 127.971 111.192 127.668 111.145 127.279C111.098 126.891 111.112 126.573 111.178 126.564C111.243 126.554 111.337 126.862 111.384 127.251C111.431 127.639 111.417 127.971 111.351 127.971Z" fill="#455A64"/>
<path d="M111.695 130.775C111.629 130.775 111.535 130.477 111.489 130.088C111.442 129.7 111.456 129.378 111.521 129.368C111.587 129.359 111.681 129.667 111.733 130.055C111.784 130.444 111.765 130.766 111.695 130.775Z" fill="#455A64"/>
<path d="M112.046 133.585C111.98 133.585 111.886 133.287 111.84 132.898C111.793 132.51 111.802 132.187 111.872 132.178C111.943 132.168 112.032 132.481 112.079 132.865C112.126 133.249 112.116 133.576 112.046 133.585Z" fill="#455A64"/>
<path d="M112.408 136.394C112.338 136.394 112.244 136.096 112.197 135.707C112.15 135.319 112.16 134.997 112.225 134.987C112.291 134.978 112.39 135.286 112.437 135.674C112.483 136.062 112.488 136.385 112.408 136.394Z" fill="#455A64"/>
<path d="M112.77 139.204C112.704 139.204 112.61 138.905 112.559 138.517C112.507 138.128 112.521 137.806 112.587 137.797C112.653 137.787 112.751 138.095 112.803 138.484C112.854 138.872 112.835 139.194 112.77 139.204Z" fill="#455A64"/>
<path d="M113.133 142.008C113.067 142.008 112.974 141.71 112.922 141.326C112.87 140.943 112.884 140.616 112.95 140.606C113.016 140.597 113.114 140.905 113.166 141.293C113.218 141.682 113.203 141.999 113.133 142.008Z" fill="#455A64"/>
<path d="M113.506 144.818C113.44 144.818 113.347 144.519 113.295 144.131C113.243 143.742 113.257 143.42 113.323 143.416C113.389 143.411 113.483 143.709 113.534 144.098C113.586 144.486 113.577 144.808 113.506 144.818Z" fill="#455A64"/>
<path d="M113.896 147.622C113.83 147.622 113.731 147.329 113.68 146.94C113.628 146.552 113.642 146.229 113.708 146.22C113.774 146.21 113.872 146.518 113.924 146.907C113.975 147.295 113.947 147.613 113.896 147.622Z" fill="#455A64"/>
<path d="M114.257 150.432C114.191 150.432 114.093 150.133 114.041 149.745C113.989 149.356 114.004 149.039 114.069 149.03C114.135 149.02 114.233 149.323 114.285 149.712C114.337 150.1 114.323 150.422 114.257 150.432Z" fill="#455A64"/>
<path d="M114.632 153.236C114.566 153.236 114.472 152.938 114.416 152.554C114.36 152.17 114.379 151.843 114.444 151.834C114.51 151.824 114.609 152.132 114.66 152.521C114.712 152.909 114.702 153.227 114.632 153.236Z" fill="#455A64"/>
<path d="M115.019 156.041C114.949 156.041 114.85 155.743 114.799 155.354C114.747 154.966 114.752 154.648 114.799 154.639C114.846 154.629 114.968 154.937 115.019 155.321C115.071 155.705 115.085 156.032 115.019 156.041Z" fill="#455A64"/>
<path d="M115.43 158.836C115.364 158.836 115.261 158.543 115.205 158.159C115.149 157.775 115.158 157.448 115.205 157.439C115.252 157.429 115.374 157.732 115.43 158.121C115.486 158.509 115.496 158.827 115.43 158.836Z" fill="#455A64"/>
<path d="M115.846 161.636C115.78 161.636 115.677 161.342 115.621 160.954C115.564 160.565 115.569 160.248 115.621 160.238C115.672 160.229 115.789 160.532 115.846 160.916C115.902 161.3 115.911 161.608 115.846 161.636Z" fill="#455A64"/>
<path d="M116.264 164.45C116.198 164.45 116.095 164.156 116.039 163.768C115.982 163.379 115.987 163.062 116.039 163.052C116.09 163.043 116.207 163.346 116.268 163.73C116.329 164.114 116.329 164.45 116.264 164.45Z" fill="#455A64"/>
<path d="M116.711 167.231C116.641 167.231 116.542 166.938 116.486 166.549C116.429 166.161 116.434 165.843 116.486 165.834C116.537 165.824 116.655 166.127 116.711 166.516C116.767 166.904 116.753 167.222 116.711 167.231Z" fill="#455A64"/>
<path d="M117.105 170.026C117.04 170.026 116.941 169.732 116.88 169.349C116.819 168.965 116.829 168.638 116.88 168.629C116.932 168.619 117.044 168.922 117.105 169.311C117.166 169.699 117.18 170.017 117.105 170.026Z" fill="#455A64"/>
<path d="M117.525 172.827C117.46 172.827 117.357 172.533 117.3 172.144C117.244 171.756 117.249 171.438 117.3 171.429C117.352 171.419 117.469 171.723 117.53 172.106C117.591 172.49 117.591 172.817 117.525 172.827Z" fill="#455A64"/>
<path d="M117.947 175.627C117.882 175.627 117.778 175.333 117.722 174.945C117.666 174.556 117.671 174.239 117.722 174.229C117.774 174.22 117.891 174.523 117.952 174.911C118.013 175.3 118.013 175.617 117.947 175.627Z" fill="#455A64"/>
<path d="M118.371 178.427C118.305 178.427 118.202 178.133 118.146 177.749C118.09 177.365 118.094 177.038 118.146 177.029C118.198 177.02 118.315 177.323 118.371 177.711C118.427 178.1 118.437 178.417 118.371 178.427Z" fill="#455A64"/>
<path d="M118.795 181.226C118.729 181.226 118.626 180.933 118.57 180.549C118.513 180.165 118.518 179.838 118.57 179.829C118.621 179.819 118.739 180.123 118.795 180.511C118.851 180.9 118.861 181.217 118.795 181.226Z" fill="#455A64"/>
<path d="M119.211 184.031C119.145 184.031 119.047 183.733 118.986 183.349C118.925 182.965 118.934 182.638 118.986 182.629C119.037 182.619 119.15 182.922 119.211 183.311C119.272 183.699 119.281 184.017 119.211 184.031Z" fill="#455A64"/>
<path d="M119.627 186.831C119.561 186.831 119.463 186.538 119.402 186.149C119.341 185.761 119.355 185.438 119.402 185.429C119.449 185.419 119.571 185.727 119.627 186.111C119.683 186.495 119.698 186.822 119.627 186.831Z" fill="#455A64"/>
<path d="M120.045 189.635C119.975 189.635 119.876 189.337 119.82 188.953C119.763 188.569 119.768 188.243 119.82 188.233C119.871 188.224 119.984 188.527 120.04 188.915C120.097 189.304 120.111 189.626 120.045 189.635Z" fill="#455A64"/>
<path d="M120.348 191.753C120.282 191.753 120.202 191.616 120.179 191.422C120.155 191.227 120.179 191.062 120.249 191.052C120.319 191.043 120.395 191.194 120.418 191.389C120.441 191.583 120.413 191.744 120.348 191.753Z" fill="#455A64"/>
<path d="M68.9769 190.033C69.0379 190.033 69.0472 190.223 68.9769 190.407C68.9065 190.592 68.8173 190.73 68.7564 190.711C68.6954 190.692 68.686 190.521 68.7564 190.332C68.8267 190.142 68.9112 190.033 68.9769 190.033Z" fill="#455A64"/>
<path d="M69.8389 187.3C69.9045 187.3 69.8388 187.646 69.7403 188.025C69.6418 188.404 69.4682 188.693 69.4072 188.669C69.3462 188.646 69.4072 188.328 69.5057 187.949C69.6043 187.57 69.7919 187.281 69.8389 187.3Z" fill="#455A64"/>
<path d="M70.733 184.561C70.7987 184.585 70.733 184.907 70.6298 185.286C70.5265 185.665 70.3576 185.95 70.292 185.931C70.2263 185.912 70.292 185.585 70.3952 185.21C70.4984 184.836 70.6626 184.542 70.733 184.561Z" fill="#455A64"/>
<path d="M71.6173 181.828C71.6829 181.852 71.6173 182.174 71.5094 182.553C71.4015 182.932 71.2325 183.216 71.1669 183.197C71.1012 183.178 71.1669 182.851 71.2748 182.472C71.3827 182.093 71.5516 181.809 71.6173 181.828Z" fill="#455A64"/>
<path d="M72.5281 179.099C72.5891 179.123 72.5281 179.445 72.4155 179.824C72.3029 180.203 72.134 180.487 72.073 180.463C72.012 180.44 72.073 180.118 72.1809 179.743C72.2888 179.369 72.4624 179.08 72.5281 179.099Z" fill="#455A64"/>
<path d="M73.4468 176.375C73.5125 176.399 73.4468 176.721 73.3295 177.096C73.2122 177.47 73.048 177.759 72.987 177.74C72.926 177.721 72.987 177.394 73.0996 177.015C73.2122 176.636 73.3811 176.352 73.4468 176.375Z" fill="#455A64"/>
<path d="M74.3818 173.656C74.4475 173.656 74.3818 174.002 74.2645 174.376C74.1473 174.75 73.9784 175.039 73.9127 175.015C73.847 174.992 73.9127 174.67 74.0347 174.295C74.1566 173.921 74.3162 173.632 74.3818 173.656Z" fill="#455A64"/>
<path d="M75.324 170.936C75.3897 170.96 75.324 171.282 75.2067 171.656C75.0894 172.03 74.9159 172.319 74.8502 172.296C74.7845 172.272 74.8502 171.95 74.9722 171.576C75.0941 171.201 75.263 170.912 75.324 170.936Z" fill="#455A64"/>
<path d="M76.2798 168.241C76.3455 168.264 76.2798 168.587 76.1578 168.961C76.0358 169.335 75.8669 169.619 75.8012 169.596C75.7356 169.572 75.8013 169.255 75.9279 168.88C76.0546 168.506 76.2188 168.198 76.2798 168.241Z" fill="#455A64"/>
<path d="M77.2473 165.512C77.3083 165.535 77.2473 165.857 77.1206 166.232C76.994 166.606 76.8251 166.89 76.7641 166.867C76.7031 166.843 76.7641 166.521 76.8907 166.146C77.0174 165.772 77.1816 165.488 77.2473 165.512Z" fill="#455A64"/>
<path d="M78.2383 162.801C78.2993 162.825 78.2383 163.147 78.107 163.521C77.9756 163.896 77.8114 164.18 77.7504 164.156C77.6894 164.132 77.7504 163.81 77.8771 163.436C78.0037 163.062 78.1586 162.777 78.2383 162.801Z" fill="#455A64"/>
<path d="M79.2085 160.097C79.2695 160.12 79.2085 160.442 79.0725 160.817C78.9364 161.191 78.7769 161.475 78.7112 161.452C78.6455 161.428 78.7112 161.106 78.8473 160.731C78.9833 160.357 79.1429 160.073 79.2085 160.097Z" fill="#455A64"/>
<path d="M80.1988 157.396C80.2645 157.42 80.1988 157.742 80.0627 158.116C79.9267 158.49 79.7671 158.77 79.7015 158.746C79.6358 158.722 79.7015 158.4 79.8375 158.031C79.9736 157.661 80.1378 157.372 80.1988 157.396Z" fill="#455A64"/>
<path d="M81.1996 154.696C81.2652 154.696 81.1996 155.042 81.0635 155.416C80.9274 155.79 80.7632 156.07 80.6976 156.046C80.6319 156.022 80.6976 155.7 80.8336 155.331C80.9697 154.961 81.1386 154.672 81.1996 154.696Z" fill="#455A64"/>
<path d="M82.2061 152C82.2671 152 82.2061 152.346 82.0654 152.72C81.9246 153.094 81.7651 153.374 81.6994 153.35C81.6337 153.326 81.6994 153.004 81.8402 152.63C81.9809 152.256 82.1404 151.976 82.2061 152Z" fill="#455A64"/>
<path d="M83.2206 149.29C83.2816 149.314 83.2206 149.636 83.0798 150.01C82.9391 150.384 82.7749 150.664 82.7092 150.64C82.6435 150.617 82.7092 150.294 82.8499 149.92C82.9907 149.546 83.1549 149.29 83.2206 149.29Z" fill="#455A64"/>
<path d="M84.2381 146.613C84.2991 146.613 84.2381 146.959 84.0973 147.329C83.9566 147.698 83.7877 147.982 83.7267 147.959C83.6657 147.935 83.7267 147.613 83.8675 147.243C84.0082 146.874 84.1724 146.59 84.2381 146.613Z" fill="#455A64"/>
<path d="M85.2772 143.922C85.3381 143.946 85.2772 144.268 85.1317 144.638C84.9863 145.007 84.8268 145.291 84.7658 145.268C84.7048 145.244 84.7658 144.922 84.9065 144.552C85.0473 144.183 85.1974 143.899 85.2772 143.922Z" fill="#455A64"/>
<path d="M86.2877 141.236C86.3487 141.264 86.2877 141.582 86.1422 141.956C85.9968 142.33 85.8373 142.605 85.7716 142.581C85.7059 142.558 85.7716 142.235 85.917 141.866C86.0625 141.496 86.2126 141.207 86.2877 141.236Z" fill="#455A64"/>
<path d="M87.319 138.545C87.38 138.569 87.319 138.891 87.1735 139.26C87.0281 139.63 86.8639 139.914 86.8029 139.89C86.7419 139.867 86.8029 139.544 86.9436 139.175C87.0844 138.805 87.2533 138.521 87.319 138.545Z" fill="#455A64"/>
<path d="M88.354 135.859C88.415 135.887 88.354 136.205 88.2086 136.574C88.0631 136.944 87.8989 137.228 87.8379 137.204C87.777 137.181 87.8379 136.858 87.9834 136.489C88.1288 136.119 88.293 135.835 88.354 135.859Z" fill="#455A64"/>
<path d="M89.3892 133.182C89.4502 133.205 89.3892 133.528 89.2438 133.897C89.0983 134.267 88.9341 134.546 88.8731 134.523C88.8121 134.499 88.8731 134.177 89.0185 133.807C89.164 133.438 89.3282 133.149 89.3892 133.182Z" fill="#455A64"/>
<path d="M90.4361 130.491C90.5017 130.515 90.4361 130.837 90.2906 131.207C90.1452 131.576 89.981 131.86 89.92 131.832C89.859 131.803 89.92 131.491 90.0654 131.117C90.2109 130.742 90.3657 130.467 90.4361 130.491Z" fill="#455A64"/>
<path d="M91.4682 127.81C91.5291 127.81 91.4682 128.155 91.3227 128.525C91.1773 128.894 91.0131 129.174 90.9474 129.15C90.8817 129.127 90.9474 128.804 91.0928 128.435C91.2383 128.065 91.4072 127.786 91.4682 127.81Z" fill="#455A64"/>
<path d="M92.5573 125.128C92.6183 125.157 92.5573 125.474 92.3931 125.839C92.2288 126.204 92.0646 126.479 92.0036 126.455C91.9427 126.431 92.0036 126.109 92.1679 125.744C92.3321 125.38 92.4963 125.128 92.5573 125.128Z" fill="#455A64"/>
<path d="M93.7797 122.546C93.836 122.579 93.7422 122.892 93.5686 123.247C93.395 123.602 93.2026 123.863 93.1416 123.834C93.0807 123.806 93.1745 123.493 93.3528 123.133C93.5311 122.773 93.7187 122.513 93.7797 122.546Z" fill="#455A64"/>
<path d="M95.2971 120.106C95.3487 120.153 95.2126 120.447 94.9921 120.769C94.7716 121.092 94.523 121.328 94.4854 121.291C94.4479 121.253 94.5652 120.959 94.7904 120.627C95.0156 120.296 95.2455 120.063 95.2971 120.106Z" fill="#455A64"/>
<path d="M96.9303 118.775C96.9303 118.841 96.8224 118.936 96.6629 119.021C96.5033 119.106 96.3485 119.154 96.3063 119.097C96.2641 119.04 96.3673 118.898 96.5502 118.803C96.7332 118.709 96.9115 118.709 96.9303 118.775Z" fill="#455A64"/>
<path d="M108.734 104.373C108.734 104.373 107.326 99.5358 106.566 96.8638C106.262 95.7828 106.083 94.67 106.031 93.5475L105.919 91.1266L106.317 89.08L107.612 90.596L113.932 83.9302C114.049 84.0912 111.07 79.7232 108.053 75.4499C105.951 72.4746 103.896 71.6598 102.569 71.5461C101.946 71.3664 101.294 71.3085 100.65 71.3755L89.7745 71.2808C87.402 71.3013 85.1095 72.1499 83.286 73.6827C82.784 74.0996 78.6178 79.6948 75.7793 85.2235L84.5293 91.6004L85.9696 89.0421V89.1936C86.0822 90.1033 86.359 91.5625 86.5701 92.4626C87.2692 95.2815 87.6211 99.0005 86.2136 101.44C85.2299 103.915 84.3933 106.446 83.7082 109.021H110.54C110.54 109.021 109.672 106.652 108.734 104.373Z" fill="#00378F"/>
<path d="M90.5063 74.8524C90.5063 74.8524 90.5673 74.8856 90.633 74.9993C90.7188 75.1722 90.742 75.3699 90.6987 75.5583C90.6278 75.853 90.4629 76.116 90.2295 76.3068C89.9668 76.5342 89.6524 76.7474 89.2912 77.0033C88.5968 77.5149 87.7899 78.1119 86.8937 78.7657C86.4362 79.1531 85.9197 79.4635 85.3643 79.6848C85.0442 79.7796 84.7038 79.7796 84.3837 79.6848C84.2134 79.6328 84.0563 79.544 83.9235 79.4246C83.7906 79.3051 83.6851 79.1579 83.6143 78.9931C83.496 78.6752 83.4658 78.3307 83.5269 77.9968C83.5881 77.6629 83.7383 77.3521 83.9615 77.098C84.3654 76.6536 84.8414 76.2819 85.369 75.9989L86.7295 75.184C87.1212 74.9331 87.5269 74.7053 87.9447 74.5018C88.2995 74.3505 88.663 74.2207 89.0331 74.1133C89.332 74.0753 89.6353 74.1263 89.9058 74.2602C90.375 74.4781 90.45 74.7813 90.4313 74.7766C90.2856 74.5842 90.091 74.4352 89.8683 74.3455C89.6133 74.2384 89.3338 74.2056 89.0613 74.2507C88.7054 74.3669 88.3561 74.5029 88.0151 74.6582C87.6397 74.8287 87.2644 75.1035 86.8328 75.3593L85.4862 76.1931C84.9831 76.4663 84.5294 76.8235 84.1444 77.2496C83.9491 77.47 83.8171 77.74 83.7626 78.0305C83.708 78.321 83.733 78.6211 83.8348 78.8983C83.8887 79.0318 83.9721 79.1512 84.0786 79.2472C84.1851 79.3433 84.3119 79.4135 84.4494 79.4526C84.7233 79.5354 85.0153 79.5354 85.2892 79.4526C85.822 79.2409 86.319 78.9468 86.7624 78.5809L89.188 76.8611C89.5305 76.6148 89.8589 76.3874 90.1263 76.1979C90.3504 76.0346 90.5152 75.8016 90.5955 75.5346C90.6298 75.4211 90.6397 75.3014 90.6243 75.1837C90.6089 75.066 90.5687 74.953 90.5063 74.8524Z" fill="#E0E0E0"/>
<path d="M111.149 83.7925C111.168 83.8574 111.168 83.9266 111.149 83.9915C111.097 84.183 110.981 84.3505 110.821 84.4652C110.57 84.6314 110.271 84.7097 109.972 84.6879C109.624 84.6879 109.249 84.6216 108.832 84.5789L105.885 84.2283C105.289 84.1999 104.701 84.0735 104.145 83.8541C103.841 83.7113 103.585 83.4826 103.408 83.1956C103.318 83.0418 103.263 82.8701 103.246 82.6925C103.229 82.5149 103.251 82.3357 103.309 82.1675C103.435 81.8515 103.644 81.5764 103.914 81.3718C104.183 81.1672 104.503 81.041 104.839 81.0068C105.436 80.9581 106.037 81.011 106.617 81.1631L108.165 81.4995C108.622 81.5818 109.073 81.691 109.516 81.8264C109.879 81.9616 110.234 82.1198 110.577 82.3001C110.825 82.4733 111.013 82.72 111.116 83.006C111.176 83.1188 111.211 83.2433 111.218 83.3709C111.225 83.4985 111.205 83.6262 111.159 83.7451C111.176 83.5043 111.132 83.263 111.032 83.0439C110.92 82.7886 110.738 82.5714 110.506 82.4186C110.165 82.261 109.816 82.1219 109.46 82.0017C109.02 81.8799 108.574 81.7818 108.123 81.7079L106.57 81.3953C106.015 81.255 105.442 81.207 104.872 81.2531C104.581 81.2837 104.303 81.3932 104.069 81.57C103.834 81.7468 103.651 81.9843 103.539 82.2575C103.49 82.392 103.471 82.5361 103.485 82.6789C103.499 82.8217 103.545 82.9595 103.619 83.0818C103.771 83.3275 103.989 83.5246 104.248 83.6504C104.781 83.8579 105.343 83.9809 105.913 84.0152L108.85 84.4131C109.268 84.4652 109.648 84.5363 109.976 84.56C110.251 84.591 110.529 84.533 110.769 84.3942C110.872 84.328 110.96 84.2399 111.025 84.1359C111.091 84.032 111.133 83.9147 111.149 83.7925Z" fill="#E0E0E0"/>
<path d="M105.919 74.398C105.919 74.398 105.98 74.4311 106.046 74.5448C106.132 74.7177 106.155 74.9155 106.111 75.1039C106.041 75.399 105.876 75.6623 105.642 75.8524C105.379 76.0798 105.065 76.2977 104.727 76.5536L102.335 78.316C101.873 78.7008 101.356 79.0108 100.8 79.2351C100.48 79.3299 100.14 79.3299 99.8199 79.2351C99.65 79.1848 99.4933 79.0971 99.3611 78.9783C99.2288 78.8595 99.1243 78.7126 99.0551 78.5481C98.9362 78.2306 98.9052 77.8864 98.9656 77.5525C99.0259 77.2186 99.1753 76.9076 99.3976 76.6531C99.8013 76.2083 100.277 75.8365 100.805 75.5539L102.166 74.7343C102.558 74.4852 102.964 74.2574 103.381 74.0521C103.737 73.9014 104.102 73.7732 104.474 73.6684C104.771 73.6263 105.073 73.6759 105.342 73.8105C105.811 74.0332 105.886 74.3364 105.872 74.3316C105.724 74.14 105.528 73.9913 105.304 73.9005C105.051 73.7893 104.77 73.7547 104.497 73.801C104.202 73.8958 103.827 74.0474 103.451 74.2132C103.047 74.4247 102.654 74.6572 102.274 74.9096L100.922 75.7482C100.419 76.0213 99.9656 76.3785 99.5806 76.8047C99.3853 77.025 99.2533 77.295 99.1987 77.5855C99.1442 77.876 99.1691 78.1761 99.2709 78.4533C99.3274 78.5847 99.4117 78.702 99.5179 78.7969C99.6241 78.8919 99.7496 78.9622 99.8856 79.0029C100.161 79.0859 100.455 79.0859 100.73 79.0029C101.26 78.7882 101.755 78.4943 102.199 78.1312C103.099 77.4869 103.92 76.9089 104.624 76.4114C104.967 76.1651 105.295 75.9377 105.562 75.7482C105.783 75.5818 105.947 75.3499 106.032 75.0849C106.061 74.9688 106.067 74.8477 106.047 74.7294C106.028 74.611 105.984 74.4981 105.919 74.398Z" fill="#E0E0E0"/>
<path d="M81.3626 81.2958C81.3626 81.2958 81.4095 81.2389 81.5362 81.201C81.7216 81.1527 81.9179 81.1729 82.0898 81.2579C82.3592 81.3935 82.5769 81.615 82.7091 81.888C82.8733 82.1959 83.0094 82.5513 83.1783 82.9397L84.3606 85.6828C84.6321 86.2204 84.8189 86.7974 84.9142 87.3931C84.9447 87.7294 84.8761 88.0672 84.7172 88.3643C84.6314 88.5208 84.5125 88.6562 84.3689 88.761C84.2254 88.8659 84.0608 88.9374 83.8867 88.9707C83.5526 89.0204 83.2113 88.9764 82.9003 88.8435C82.5892 88.7107 82.3202 88.4941 82.1227 88.2174C81.7805 87.7218 81.525 87.1705 81.3673 86.5877C81.1937 86.0571 81.0295 85.5454 80.8747 85.0669C80.7174 84.6266 80.5858 84.1773 80.4806 83.7215C80.4079 83.3398 80.3609 82.9536 80.3398 82.5655C80.368 82.2621 80.4838 81.9738 80.673 81.7364C80.9826 81.3432 81.2923 81.3148 81.2876 81.329C81.0686 81.4347 80.8821 81.5984 80.748 81.8027C80.5868 82.029 80.4925 82.2967 80.4759 82.575C80.5041 82.8924 80.5697 83.2903 80.6495 83.6978C80.7641 84.1428 80.9035 84.581 81.0671 85.0101C81.2266 85.4838 81.4002 85.9955 81.5831 86.5261C81.7372 87.0817 81.9831 87.6071 82.3103 88.0801C82.4828 88.3189 82.716 88.5061 82.9853 88.6221C83.2545 88.738 83.5498 88.7783 83.8398 88.7386C83.979 88.7153 84.1112 88.6606 84.2265 88.5785C84.3419 88.4965 84.4374 88.3893 84.506 88.2648C84.641 88.0092 84.6997 87.7196 84.6749 87.431C84.5857 86.8608 84.41 86.308 84.1542 85.7918C83.7272 84.7637 83.3472 83.8257 83.0188 83.025C82.8546 82.6365 82.7232 82.267 82.5778 81.9733C82.4679 81.7161 82.2787 81.5017 82.0382 81.3621C81.9369 81.3028 81.8242 81.2661 81.7076 81.2547C81.591 81.2432 81.4734 81.2573 81.3626 81.2958Z" fill="#E0E0E0"/>
<path d="M93.7683 80.3014C93.8403 80.2891 93.9144 80.3007 93.9794 80.3346C94.1739 80.4218 94.3294 80.5788 94.4157 80.7752C94.4455 80.8407 94.469 80.9089 94.4861 80.9789C94.5125 81.037 94.5548 81.0863 94.6081 81.121C94.7489 81.2139 94.8963 81.2962 95.0491 81.3674C95.4414 81.5324 95.8223 81.7239 96.1891 81.9406C96.2481 81.9774 96.2991 82.0257 96.3393 82.0827C96.3559 82.1012 96.3686 82.123 96.3767 82.1466C96.3847 82.1702 96.388 82.1952 96.3862 82.2201C96.3862 82.2817 96.3862 82.2912 96.3627 82.3291C96.3302 82.4581 96.2813 82.5823 96.2173 82.6986C96.0884 82.9398 95.9309 83.1641 95.7481 83.3666C95.3775 83.793 94.9365 84.1862 94.5002 84.6221C94.0185 85.03 93.6756 85.5801 93.5196 86.195C93.4503 86.5431 93.3367 86.8806 93.1818 87.1994C93.0128 87.5428 92.74 87.8232 92.403 88C92.229 88.091 92.0359 88.1385 91.84 88.1385C91.644 88.1385 91.451 88.091 91.277 88C90.9553 87.8136 90.6994 87.5304 90.5451 87.1899C90.3131 86.5457 90.3131 85.8396 90.5451 85.1953C90.9063 83.992 91.2488 82.9402 91.5538 82.0354C91.7221 81.6429 91.9149 81.2615 92.1309 80.8936C92.3103 80.6079 92.5848 80.3963 92.905 80.2967C93.031 80.236 93.1689 80.2046 93.3085 80.2046C93.4481 80.2046 93.5859 80.236 93.7119 80.2967C93.4517 80.246 93.1824 80.274 92.9378 80.3772C92.6508 80.4827 92.4088 80.6853 92.2528 80.9505C92.051 81.3184 91.8708 81.6981 91.7133 82.0875C91.4412 82.9734 91.1034 84.0631 90.775 85.2475C90.5663 85.8405 90.5663 86.4879 90.775 87.0809C90.9088 87.373 91.1304 87.615 91.4083 87.7726C91.5473 87.8461 91.7019 87.8844 91.8587 87.8844C92.0156 87.8844 92.1702 87.8461 92.3091 87.7726C92.5994 87.6193 92.8343 87.3772 92.98 87.0809C93.1254 86.7794 93.2341 86.4613 93.3038 86.1334C93.3365 85.9612 93.3868 85.7929 93.4539 85.6312C93.5275 85.4748 93.6154 85.3257 93.7166 85.1859C93.9098 84.9245 94.1248 84.6804 94.3594 84.4563C94.8004 84.0157 95.2461 83.6319 95.6074 83.2292C95.7869 83.0395 95.9443 82.8297 96.0766 82.6039C96.1346 82.4991 96.1803 82.3878 96.2126 82.2722C96.2126 82.2722 96.2408 82.2059 96.2126 82.2059V82.1822C96.1824 82.1419 96.1459 82.1067 96.1047 82.078C95.7505 81.8606 95.3839 81.6644 95.0069 81.4905C94.843 81.4126 94.686 81.3207 94.5377 81.2158C94.4638 81.1643 94.4092 81.0892 94.3829 81.0026C94.3697 80.9378 94.3509 80.8744 94.3266 80.8131C94.2608 80.629 94.1306 80.4757 93.9606 80.3819C93.8983 80.3509 93.834 80.324 93.7683 80.3014Z" fill="#E0E0E0"/>
<path d="M98.4117 84.8587C98.4117 84.8587 98.4399 84.7924 98.5525 84.7261C98.7198 84.6333 98.9142 84.6031 99.1014 84.6408C99.3986 84.7088 99.6646 84.8756 99.8567 85.1145C100.091 85.3704 100.326 85.6783 100.575 86.0147L102.39 88.3835C102.782 88.8345 103.099 89.3465 103.329 89.8995C103.438 90.2198 103.454 90.5651 103.375 90.8944C103.329 91.0672 103.246 91.2275 103.132 91.3642C103.017 91.501 102.875 91.6107 102.714 91.6856C102.404 91.8096 102.066 91.8478 101.736 91.7961C101.406 91.7445 101.096 91.6049 100.837 91.3919C100.386 90.9961 100.005 90.525 99.7113 89.999L98.8809 88.6488C98.6218 88.2593 98.3837 87.8561 98.1677 87.4407C98.0089 87.0861 97.871 86.7222 97.7549 86.3511C97.7053 86.0521 97.7462 85.745 97.8722 85.4699C98.0786 84.9961 98.3742 84.9061 98.3695 84.9203C98.1867 85.0783 98.0463 85.2804 97.9613 85.5078C97.8621 85.7671 97.8361 86.0492 97.8862 86.3226C97.9895 86.6211 98.149 86.9906 98.3226 87.3649C98.545 87.7672 98.7877 88.1578 99.0498 88.5351L99.9177 89.8758C100.204 90.3756 100.57 90.8238 101.001 91.2024C101.227 91.3908 101.498 91.5144 101.787 91.5602C102.076 91.6061 102.372 91.5725 102.644 91.4629C102.772 91.4019 102.886 91.3136 102.977 91.204C103.069 91.0945 103.136 90.9662 103.174 90.8281C103.241 90.546 103.228 90.2503 103.136 89.9753C102.909 89.447 102.604 88.9566 102.231 88.5209L100.457 86.1189C100.204 85.7825 99.9881 85.4556 99.7723 85.2046C99.6055 84.9773 99.37 84.811 99.1014 84.7308C98.9844 84.6969 98.8613 84.6909 98.7417 84.713C98.622 84.7352 98.5091 84.7851 98.4117 84.8587Z" fill="#E0E0E0"/>
<path d="M88.2683 93.6371C88.2626 93.5701 88.2756 93.5028 88.3058 93.4428C88.3891 93.2692 88.528 93.129 88.6999 93.0449C88.9756 92.9212 89.284 92.8929 89.5773 92.9643C89.9151 93.0307 90.2763 93.1444 90.6845 93.2581L93.537 94.0777C94.1207 94.2057 94.681 94.4246 95.1979 94.7267C95.4743 94.9178 95.6895 95.1862 95.8172 95.499C95.882 95.6654 95.9098 95.8443 95.8984 96.0228C95.8871 96.2013 95.8369 96.3751 95.7515 96.5318C95.5772 96.8231 95.3272 97.0606 95.0286 97.2184C94.73 97.3763 94.3942 97.4485 94.0578 97.4272C93.4616 97.3813 92.8775 97.2323 92.3313 96.9866L90.8534 96.4038C90.4166 96.2469 89.989 96.065 89.5726 95.859C89.2346 95.6697 88.9087 95.4592 88.5967 95.2289C88.3809 95.0174 88.2337 94.7449 88.1745 94.4472C88.1327 94.3266 88.1182 94.198 88.132 94.0709C88.1458 93.9439 88.1876 93.8216 88.2542 93.7129C88.1902 93.9454 88.1902 94.1911 88.2542 94.4235C88.3262 94.6919 88.4708 94.9347 88.6718 95.1247C88.9834 95.3349 89.306 95.5278 89.6383 95.7027C90.0513 95.8999 90.4741 96.0754 90.905 96.2286L92.3923 96.7876C92.9164 97.0163 93.4745 97.1556 94.0437 97.1998C94.3356 97.2184 94.627 97.1563 94.8865 97.0203C95.1461 96.8842 95.364 96.6793 95.5169 96.4275C95.5866 96.303 95.6274 96.1641 95.6364 96.0213C95.6453 95.8786 95.6221 95.7356 95.5685 95.6032C95.4606 95.334 95.2761 95.1032 95.0384 94.9399C94.5453 94.6481 94.0104 94.4355 93.4526 94.3098L90.6376 93.4381C90.2341 93.3197 89.8682 93.187 89.5491 93.1112C89.2834 93.0361 89.001 93.0477 88.7422 93.1444C88.6335 93.1886 88.5352 93.2553 88.4536 93.3401C88.372 93.425 88.3089 93.5261 88.2683 93.6371Z" fill="#E0E0E0"/>
<path d="M103.573 104.482C103.516 104.516 103.451 104.531 103.385 104.525C103.193 104.522 103.008 104.45 102.864 104.321C102.64 104.118 102.489 103.844 102.437 103.544C102.358 103.208 102.32 102.824 102.254 102.402C102.137 101.545 101.996 100.545 101.846 99.4364C101.726 98.8459 101.699 98.2399 101.766 97.6409C101.834 97.3071 101.997 97.0007 102.236 96.7597C102.357 96.6351 102.504 96.5385 102.666 96.4764C102.828 96.4142 103.001 96.3881 103.174 96.3996C103.508 96.4467 103.823 96.5837 104.086 96.7963C104.35 97.0089 104.552 97.2892 104.671 97.6077C104.866 98.1777 104.966 98.7765 104.966 99.3796C104.966 99.9434 105.013 100.474 105.037 100.981C105.063 101.454 105.063 101.929 105.037 102.402C105.003 102.789 104.945 103.174 104.863 103.553C104.757 103.838 104.569 104.084 104.323 104.259C104.23 104.346 104.119 104.411 103.999 104.45C103.878 104.49 103.75 104.502 103.624 104.487C103.861 104.443 104.082 104.338 104.267 104.184C104.484 104.009 104.646 103.775 104.736 103.511C104.802 103.139 104.847 102.764 104.872 102.388C104.878 101.928 104.859 101.468 104.816 101.009C104.788 100.507 104.76 99.9718 104.727 99.4128C104.723 98.8351 104.625 98.2621 104.436 97.7167C104.334 97.4398 104.16 97.1959 103.932 97.0108C103.704 96.8257 103.431 96.7062 103.141 96.6649C102.999 96.6524 102.856 96.6718 102.722 96.7218C102.588 96.7718 102.467 96.851 102.367 96.9539C102.17 97.1624 102.036 97.4239 101.982 97.7072C101.919 98.2807 101.942 98.8607 102.053 99.427C102.184 100.536 102.306 101.54 102.409 102.402C102.461 102.824 102.489 103.212 102.55 103.534C102.588 103.811 102.713 104.069 102.906 104.269C102.996 104.351 103.101 104.412 103.216 104.449C103.331 104.486 103.453 104.497 103.573 104.482Z" fill="#E0E0E0"/>
<path d="M89.2132 106.538C89.2132 106.538 89.1522 106.495 89.1006 106.377C89.0342 106.195 89.0342 105.995 89.1006 105.813C89.1995 105.526 89.3912 105.28 89.6448 105.117C89.9216 104.913 90.2548 104.728 90.616 104.505L93.1636 102.975C93.6589 102.636 94.2034 102.377 94.7775 102.208C95.1033 102.138 95.4419 102.165 95.7534 102.284C95.9179 102.35 96.0659 102.453 96.1867 102.584C96.3076 102.715 96.3983 102.871 96.4525 103.042C96.5429 103.37 96.5422 103.718 96.4504 104.046C96.3585 104.374 96.1791 104.671 95.9317 104.903C95.4876 105.305 94.9781 105.625 94.4256 105.851L92.9947 106.538C92.5759 106.758 92.1451 106.954 91.7045 107.125C91.3386 107.243 90.9656 107.336 90.5879 107.405C90.2868 107.42 89.9886 107.34 89.734 107.177C89.307 106.917 89.2414 106.609 89.2648 106.614C89.3974 106.814 89.5782 106.977 89.7903 107.087C90.0334 107.219 90.3082 107.278 90.5832 107.258C90.9487 107.177 91.309 107.074 91.6623 106.95C92.0847 106.777 92.4981 106.583 92.9009 106.367L94.3084 105.661C94.8347 105.437 95.32 105.124 95.744 104.738C95.9596 104.536 96.1171 104.28 96.1997 103.995C96.2823 103.711 96.287 103.409 96.2132 103.122C96.1695 102.986 96.0969 102.861 96.0005 102.756C95.9041 102.652 95.7861 102.569 95.6549 102.516C95.3853 102.413 95.0924 102.39 94.8104 102.449C94.2627 102.61 93.7434 102.856 93.2715 103.179L90.6911 104.662C90.3298 104.875 89.9826 105.05 89.7105 105.235C89.4724 105.377 89.2863 105.593 89.1804 105.851C89.1377 105.961 89.1186 106.08 89.1243 106.198C89.1299 106.316 89.1602 106.432 89.2132 106.538Z" fill="#E0E0E0"/>
<path d="M89.1984 83.6411C88.5145 85.0186 87.758 86.3581 86.9323 87.6539C86.1746 88.9902 85.3477 90.2854 84.4551 91.534C85.1386 90.1578 85.8951 88.8199 86.7212 87.526C87.4769 86.1869 88.3039 84.89 89.1984 83.6411Z" fill="#263238"/>
<path d="M90.0287 81.3337C90.0151 80.7919 89.9617 80.252 89.8692 79.7182C89.5692 78.4496 89.036 77.2491 88.2975 76.1792C87.9039 75.5871 87.4043 75.0746 86.8243 74.6679C86.3475 74.3452 85.8088 74.1273 85.2432 74.0283C84.7155 73.9523 84.178 73.9829 83.6621 74.1183C83.7842 74.03 83.9232 73.9687 84.0703 73.9383C84.4618 73.8337 84.8696 73.8063 85.2714 73.8577C85.8697 73.9371 86.4432 74.1491 86.951 74.4784C87.562 74.892 88.0877 75.4213 88.4992 76.037C89.2583 77.1315 89.7824 78.374 90.0381 79.685C90.1087 80.0851 90.1308 80.4924 90.1038 80.8978C90.1066 81.0466 90.0812 81.1946 90.0287 81.3337Z" fill="#263238"/>
<path d="M99.966 71.1953C99.966 71.1953 99.9942 71.2474 100.022 71.3517C100.064 71.507 100.094 71.6654 100.111 71.8254C100.176 72.4103 100.128 73.0022 99.9707 73.5689C99.7342 74.4161 99.2716 75.1815 98.6336 75.7813C97.8248 76.4983 96.7964 76.9126 95.721 76.9549C94.6455 76.9972 93.5884 76.6648 92.7268 76.0135C92.0444 75.4639 91.5236 74.7366 91.2208 73.91C91.0185 73.3572 90.926 72.7696 90.9487 72.1807C90.9529 72.0216 90.9702 71.8632 91.0003 71.707C91.0237 71.598 91.0378 71.5412 91.0472 71.5459C90.9958 72.3274 91.111 73.1109 91.385 73.8436C91.694 74.6262 92.2042 75.3115 92.8629 75.8287C93.6878 76.4403 94.6938 76.7512 95.7164 76.7108C96.739 76.6703 97.7178 76.2809 98.4929 75.606C99.1122 75.0398 99.5705 74.3169 99.8206 73.512C100.032 72.7591 100.082 71.9692 99.966 71.1953Z" fill="#263238"/>
<path d="M104.088 82.2339C104.407 82.5736 104.683 82.9524 104.909 83.3614C105.514 84.3193 105.964 85.3684 106.241 86.4693C106.518 87.5782 106.545 88.7357 106.321 89.8567C106.251 90.1943 106.149 90.5243 106.016 90.8421C105.978 90.9632 105.918 91.0758 105.838 91.1737C105.796 91.1737 106.011 90.6668 106.152 89.8235C106.325 88.7192 106.274 87.591 106.002 86.5072C105.726 85.4314 105.309 84.3975 104.763 83.4325C104.518 83.0449 104.293 82.6449 104.088 82.2339Z" fill="#263238"/>
<path d="M113.946 83.9492C113.68 84.3168 113.384 84.6607 113.06 84.9773L110.85 87.3887C109.977 88.3362 109.175 89.1606 108.579 89.7575C108.273 90.0935 107.935 90.3982 107.57 90.6671C107.837 90.2985 108.133 89.953 108.457 89.6343L110.672 87.2276C111.539 86.2801 112.342 85.4558 112.938 84.8588C113.243 84.5229 113.581 84.2182 113.946 83.9492Z" fill="#263238"/>
<path d="M109.035 89.1553C108.993 89.2121 108.744 89.0795 108.481 88.8615C108.218 88.6436 108.04 88.4304 108.082 88.3878C108.125 88.3451 108.373 88.4683 108.636 88.6815C108.899 88.8947 109.077 89.1221 109.035 89.1553Z" fill="#263238"/>
<path d="M110.484 87.6112C110.438 87.6633 110.198 87.5544 109.94 87.3649C109.682 87.1753 109.509 86.9811 109.546 86.9243C109.584 86.8674 109.823 86.9764 110.086 87.1659C110.348 87.3554 110.527 87.5591 110.484 87.6112Z" fill="#263238"/>
<path d="M112.345 85.5735C112.303 85.6256 112.073 85.5072 111.833 85.3035C111.594 85.0998 111.439 84.8961 111.482 84.8297C111.524 84.7634 111.754 84.8961 111.993 85.0998C112.232 85.3035 112.392 85.5214 112.345 85.5735Z" fill="#263238"/>
<path d="M96.4256 78.2832C96.3646 78.3117 96.1488 77.9942 96.0502 77.5394C95.9517 77.0846 96.0174 76.7009 96.0831 76.7056C96.1488 76.7103 96.1957 77.0609 96.2895 77.4873C96.3833 77.9137 96.4866 78.2501 96.4256 78.2832Z" fill="#263238"/>
<path d="M99.1372 76.9797C99.0856 77.0224 98.8651 76.8187 98.6681 76.506C98.471 76.1933 98.3209 75.9422 98.3772 75.8996C98.4335 75.8569 98.6493 76.0654 98.8464 76.3733C99.0434 76.6813 99.1935 76.9418 99.1372 76.9797Z" fill="#263238"/>
<path d="M100.865 74.7387C100.832 74.8003 100.56 74.7103 100.26 74.5445C99.9596 74.3787 99.7391 74.1892 99.7907 74.1323C99.8423 74.0755 100.096 74.1608 100.396 74.3266C100.696 74.4924 100.898 74.6819 100.865 74.7387Z" fill="#263238"/>
<path d="M101.336 72.5405C101.336 72.6114 101.073 72.654 100.759 72.6398C100.445 72.6256 100.191 72.5547 100.191 72.4884C100.191 72.4222 100.454 72.3797 100.768 72.3938C101.083 72.408 101.336 72.4837 101.336 72.5405Z" fill="#263238"/>
<path d="M92.6629 77.6098C92.6066 77.5766 92.7192 77.2734 92.9163 76.9323C93.1133 76.5912 93.3198 76.3448 93.3854 76.378C93.4511 76.4112 93.3338 76.7144 93.1368 77.0555C92.9397 77.3966 92.7239 77.6429 92.6629 77.6098Z" fill="#263238"/>
<path d="M90.6871 75.4543C90.6636 75.388 90.9169 75.2317 91.2219 75.0516C91.5269 74.8716 91.7896 74.72 91.8365 74.7721C91.8834 74.8242 91.677 75.0658 91.3673 75.2459C91.0577 75.4259 90.7105 75.5159 90.6871 75.4543Z" fill="#263238"/>
<path d="M91.099 72.6973C91.099 72.7636 90.8175 72.8818 90.4374 72.9575C90.0574 73.0332 89.7431 73.0379 89.729 72.9575C89.7149 72.8771 90.0105 72.7777 90.3905 72.7021C90.7705 72.6264 91.0896 72.6311 91.099 72.6973Z" fill="#263238"/>
<path d="M84.5375 91.6191C84.401 91.577 84.2713 91.5148 84.1528 91.4343C83.9136 91.3017 83.5804 91.0932 83.1723 90.8232C82.3606 90.2878 81.2956 89.4824 80.1086 88.5681C78.9216 87.6537 77.8848 86.8246 77.0966 86.2561C76.3084 85.6876 75.8157 85.3465 75.8345 85.3086C75.9696 85.3506 76.0978 85.4128 76.2145 85.4934C76.4538 85.626 76.7916 85.8345 77.1951 86.1045C78.0114 86.6399 79.0717 87.4453 80.2587 88.3596C81.4457 89.274 82.4873 90.1031 83.2708 90.6716C83.7091 90.9648 84.132 91.2811 84.5375 91.6191Z" fill="#263238"/>
<path d="M77.6744 84.7163C77.7354 84.7495 77.6274 85.0858 77.4351 85.4743C77.2427 85.8628 77.0363 86.1471 76.9659 86.1139C76.8955 86.0807 77.0128 85.7491 77.2052 85.3606C77.3976 84.9721 77.6181 84.6879 77.6744 84.7163Z" fill="#263238"/>
<path d="M79.8112 86.2275C79.8675 86.2607 79.7455 86.6065 79.539 86.9997C79.3326 87.393 79.1121 87.682 79.0699 87.6488C79.0276 87.6156 79.1309 87.2745 79.3373 86.8813C79.5437 86.4881 79.7502 86.1991 79.8112 86.2275Z" fill="#263238"/>
<path d="M82.1223 88.0898C82.1786 88.1277 82.0331 88.4404 81.7938 88.7862C81.5546 89.1321 81.3247 89.3784 81.259 89.3405C81.1933 89.3026 81.3528 88.9899 81.5921 88.6441C81.8314 88.2982 82.0707 88.0519 82.1223 88.0898Z" fill="#263238"/>
<path d="M84.1787 88.9946C84.2397 89.0278 84.0426 89.4684 83.7471 89.9943C83.4515 90.5201 83.1559 90.9039 83.0996 90.8707C83.1697 90.5089 83.3188 90.1675 83.5359 89.8711C83.8315 89.3547 84.1224 88.9615 84.1787 88.9946Z" fill="#263238"/>
<path d="M95.24 76.7526C95.8182 76.7976 96.3993 76.7245 96.9488 76.5375C97.4983 76.3505 98.0047 76.0535 98.4379 75.6643C98.8711 75.2751 99.2221 74.8016 99.4699 74.2723C99.7177 73.7429 99.8572 73.1685 99.8801 72.5835C99.9692 70.2147 100.049 67.8175 100.049 67.8175C100.049 67.8175 103.601 67.4811 103.859 63.9279C104.117 60.3747 103.999 52.1739 103.999 52.1739C102.05 51.1826 99.8738 50.7346 97.6956 50.8762C95.5175 51.0177 93.4162 51.7438 91.6087 52.9793L91.0645 53.3535L91.2615 72.4603C91.2725 73.5487 91.6872 74.5934 92.4238 75.3881C93.1604 76.1828 94.1653 76.6696 95.24 76.7526Z" fill="#F2D9B6"/>
<path d="M102.324 58.4271C102.252 58.3544 102.202 58.2615 102.182 58.1603C102.162 58.0591 102.172 57.9542 102.211 57.8587C102.25 57.7633 102.316 57.6816 102.401 57.6242C102.486 57.5668 102.586 57.5361 102.688 57.5361C102.79 57.5361 102.89 57.5668 102.975 57.6242C103.06 57.6816 103.126 57.7633 103.165 57.8587C103.204 57.9542 103.214 58.0591 103.194 58.1603C103.174 58.2615 103.124 58.3544 103.052 58.4271C102.955 58.524 102.824 58.5784 102.688 58.5784C102.552 58.5784 102.421 58.524 102.324 58.4271Z" fill="#263238"/>
<path d="M103.699 57.8247C103.638 57.8814 103.31 57.5929 102.826 57.5598C102.343 57.5267 101.972 57.7584 101.921 57.6922C101.869 57.626 101.958 57.555 102.123 57.451C102.337 57.3106 102.591 57.2457 102.845 57.2665C103.102 57.2833 103.346 57.3847 103.539 57.555C103.68 57.6827 103.727 57.801 103.699 57.8247Z" fill="#263238"/>
<path d="M97.7253 57.7548C97.7804 57.7937 97.8275 57.8431 97.8637 57.9004C97.8999 57.9576 97.9246 58.0215 97.9363 58.0883C97.9481 58.1552 97.9467 58.2238 97.9322 58.2901C97.9178 58.3564 97.8905 58.4192 97.852 58.4749C97.8135 58.5306 97.7645 58.5781 97.7078 58.6146C97.6511 58.6512 97.5879 58.6761 97.5216 58.688C97.4554 58.6999 97.3875 58.6985 97.3219 58.6838C97.2562 58.6692 97.194 58.6417 97.1388 58.6028C97.0275 58.5243 96.9516 58.4043 96.9278 58.2692C96.9041 58.1342 96.9344 57.9951 97.0122 57.8827C97.0899 57.7702 97.2088 57.6936 97.3425 57.6696C97.4762 57.6456 97.6139 57.6762 97.7253 57.7548Z" fill="#263238"/>
<path d="M98.4114 57.9387C98.2969 57.8282 98.1582 57.7467 98.0066 57.7006C97.8549 57.6546 97.6946 57.6454 97.5387 57.6738C97.0695 57.6359 96.6848 57.8724 96.6379 57.8062C96.591 57.74 96.6754 57.669 96.835 57.5603C97.0522 57.4237 97.307 57.3608 97.5622 57.3805C97.8171 57.3984 98.0593 57.4997 98.2518 57.669C98.4114 57.7968 98.4348 57.915 98.4114 57.9387Z" fill="#263238"/>
<path d="M100.127 61.7439C100.384 61.6566 100.654 61.6149 100.925 61.6207C101.052 61.6207 101.155 61.5923 101.164 61.526C101.178 61.3974 101.155 61.2676 101.099 61.1517C100.991 60.8201 100.888 60.4837 100.775 60.1331C100.306 58.6834 100.029 57.4895 100.104 57.4658C100.498 58.2956 100.813 59.1619 101.042 60.0526C101.146 60.4079 101.249 60.7442 101.347 61.0759C101.418 61.2454 101.431 61.4334 101.385 61.6112C101.363 61.6598 101.331 61.7027 101.29 61.7364C101.25 61.7702 101.202 61.7938 101.15 61.8055C101.079 61.8142 101.006 61.8142 100.934 61.8055C100.664 61.8288 100.391 61.808 100.127 61.7439Z" fill="#263238"/>
<path d="M100.054 67.7655C98.427 67.6973 96.8574 67.1415 95.5449 66.1689C95.5449 66.1689 96.4833 68.7936 100.007 68.6893L100.054 67.7655Z" fill="#7C4435"/>
<path d="M94.2735 50.9422C94.3578 51.6752 94.6795 52.3595 95.1885 52.889C95.6976 53.4184 96.3655 53.7633 97.0885 53.87C97.9565 53.9743 98.8901 53.7327 99.669 54.1306C100.199 54.4839 100.65 54.9455 100.992 55.4856C101.164 55.7517 101.394 55.9751 101.664 56.1391C101.933 56.3032 102.236 56.4037 102.55 56.4331C102.85 56.3942 103.146 56.3227 103.432 56.2199C103.575 56.1722 103.728 56.1559 103.878 56.1723C104.029 56.1886 104.174 56.2372 104.304 56.3147C104.747 55.2697 104.926 54.1302 104.825 52.9983C104.766 52.435 104.553 51.8993 104.21 51.451C103.867 51.0027 103.408 50.6592 102.883 50.459C102.179 50.2505 101.424 50.3832 100.706 50.26C100.119 50.1223 99.5514 49.9106 99.0168 49.6299C98.1295 49.1457 97.1232 48.9287 96.1174 49.0045C95.1274 49.1561 94.1703 49.9852 94.1938 50.9943" fill="#263238"/>
<path d="M91.3087 60.6685C92.5848 61.7013 94.1237 59.0198 94.804 57.3522C95.4286 55.6297 95.7632 53.8138 95.7939 51.9798C95.889 51.383 95.7797 50.7714 95.4843 50.2458C95.1183 49.772 94.9588 50.3595 94.546 49.8905C93.7624 48.9714 92.3174 49.4688 91.6043 49.7815C90.4173 50.3027 89.676 51.6387 89.4414 52.9983C89.2779 54.3733 89.3285 55.7657 89.5916 57.1248C89.676 57.7502 89.7651 58.3708 89.8543 58.9962C89.8825 59.4399 90.0075 59.8718 90.2202 60.2611C90.3209 60.4485 90.4841 60.5937 90.6809 60.6709C90.8776 60.7481 91.0951 60.7523 91.2946 60.6827" fill="#263238"/>
<path d="M91.2625 57.7452C91.2638 57.6064 91.2118 57.4725 91.1172 57.3717C91.0227 57.271 90.8931 57.2112 90.7558 57.2051C90.099 57.2051 89.0246 57.4514 88.9261 59.2849C88.7806 61.9 91.2719 61.2463 91.2719 61.1799C91.2719 61.1136 91.2719 58.759 91.2625 57.7452Z" fill="#F2D9B6"/>
<path d="M90.7065 60.1424C90.7065 60.1424 90.6596 60.1708 90.5798 60.204C90.4731 60.2485 90.3534 60.2485 90.2467 60.204C90.0827 60.0902 89.9525 59.9336 89.8698 59.7508C89.7872 59.5681 89.7553 59.3661 89.7775 59.1664C89.7829 58.9418 89.8391 58.7215 89.9417 58.5221C89.969 58.4412 90.0159 58.3684 90.0782 58.3105C90.1405 58.2525 90.2162 58.2113 90.2983 58.1905C90.3505 58.1788 90.405 58.1861 90.4523 58.2113C90.4996 58.2365 90.5365 58.2778 90.5563 58.3279C90.5892 58.4037 90.5563 58.4558 90.5845 58.4605C90.6126 58.4653 90.6408 58.4179 90.6267 58.3089C90.6139 58.2449 90.581 58.1867 90.5329 58.1431C90.4995 58.1141 90.4608 58.092 90.4189 58.0782C90.377 58.0643 90.3328 58.0591 90.2889 58.0626C90.1805 58.0767 90.0777 58.119 89.9905 58.1855C89.9033 58.252 89.8347 58.3402 89.7916 58.4416C89.6693 58.6618 89.6032 58.9093 89.5992 59.1617C89.5732 59.3937 89.6159 59.6283 89.722 59.8358C89.828 60.0432 89.9927 60.2143 90.1951 60.3272C90.2638 60.3508 90.3369 60.3589 90.4091 60.3507C90.4813 60.3425 90.5508 60.3183 90.6126 60.2798C90.6971 60.2229 90.7159 60.1471 90.7065 60.1424Z" fill="#7C4435"/>
<path d="M98.8833 62.3694C98.7887 62.5269 98.7583 62.7154 98.7986 62.895C98.839 63.0747 98.9468 63.2315 99.0994 63.3324C99.2519 63.4334 99.4374 63.4705 99.6166 63.4361C99.7958 63.4016 99.9548 63.2983 100.06 63.1478C100.165 62.9973 100.208 62.8115 100.18 62.6294C100.153 62.4474 100.056 62.2834 99.9106 62.172C99.7653 62.0606 99.5828 62.0105 99.4017 62.0323C99.2206 62.0542 99.0549 62.1461 98.9396 62.2889" fill="#7C4435"/>
<path d="M100.51 62.8805C100.334 62.9516 100.146 62.985 99.9569 62.9784C99.7678 62.9719 99.5822 62.9257 99.4119 62.8426C98.8161 62.6294 98.4736 62.2078 98.5393 62.1699C98.6049 62.132 98.9568 62.421 99.4776 62.6105C99.9984 62.8 100.505 62.8095 100.51 62.8805Z" fill="#263238"/>
<path d="M92.388 49.1981C92.388 49.2739 91.825 49.4445 91.2385 49.8756C90.9027 50.126 90.5888 50.4049 90.3002 50.7094L90.0938 50.8942L90.2251 50.6715C90.2533 50.6194 90.2767 50.6004 90.2908 50.6052C90.3049 50.6099 90.2908 50.6383 90.2908 50.6999L90.2157 50.662C90.406 50.2625 90.6994 49.9221 91.0649 49.6766C91.4332 49.3591 91.9039 49.1889 92.388 49.1981Z" fill="#00378F"/>
<path d="M97.9442 56.1909C97.8645 56.3804 97.4751 56.4089 97.081 56.4942C96.6869 56.5794 96.3068 56.6837 96.1426 56.5368C96.0769 56.461 96.1004 56.3141 96.2365 56.153C96.4154 55.9508 96.6568 55.8156 96.9214 55.7693C97.1843 55.7123 97.4584 55.7457 97.7003 55.864C97.8785 55.9588 97.9442 56.0962 97.9442 56.1909Z" fill="#263238"/>
<path d="M41.2531 176.531C40.4227 177.729 38.8088 177.331 38.0581 176.597C37.3074 175.863 36.9931 174.806 36.7022 173.797C36.0454 171.485 35.3838 169.06 35.8718 166.691C35.9912 165.978 36.301 165.311 36.7679 164.763C37.005 164.494 37.3081 164.293 37.6466 164.18C37.985 164.066 38.347 164.045 38.6962 164.118C39.5125 164.331 40.0192 165.137 40.3852 165.904C41.4618 168.167 42.0259 170.643 42.0366 173.153C42.1149 174.326 41.8419 175.497 41.2531 176.512" fill="#00378F"/>
<g opacity="0.2">
<path d="M41.2531 176.531C40.4227 177.729 38.8088 177.331 38.0581 176.597C37.3074 175.863 36.9931 174.806 36.7022 173.797C36.0454 171.485 35.3838 169.06 35.8718 166.691C35.9912 165.978 36.301 165.311 36.7679 164.763C37.005 164.494 37.3081 164.293 37.6466 164.18C37.985 164.066 38.347 164.045 38.6962 164.118C39.5125 164.331 40.0192 165.137 40.3852 165.904C41.4618 168.167 42.0259 170.643 42.0366 173.153C42.1149 174.326 41.8419 175.497 41.2531 176.512" fill="black"/>
</g>
<path d="M38.138 182.6C36.746 181.938 35.1802 181.745 33.6715 182.05C32.8465 182.121 32.0694 182.472 31.4665 183.045C30.9128 183.661 30.8096 184.741 31.4665 185.272C31.8797 185.554 32.378 185.679 32.874 185.627C34.0563 185.627 35.3652 185.404 36.313 186.101C36.8478 186.508 37.2091 187.19 37.8518 187.394C38.1741 187.468 38.5115 187.435 38.8135 187.299C39.1154 187.163 39.3657 186.932 39.5267 186.641C39.8321 186.043 39.8992 185.35 39.7144 184.703C39.6309 184.253 39.445 183.829 39.1714 183.464C38.8979 183.099 38.5441 182.803 38.138 182.6Z" fill="#00378F"/>
<path d="M43.5191 178.251C43.0935 177.686 42.8101 177.025 42.6932 176.325C42.5764 175.626 42.6296 174.908 42.8482 174.233C43.3028 172.89 44.1143 171.698 45.1941 170.789C46.4259 169.682 47.8603 168.829 49.4166 168.278C50.0117 168.034 50.6517 167.923 51.2932 167.951C51.6166 167.97 51.9305 168.068 52.2077 168.238C52.4849 168.407 52.717 168.642 52.8837 168.922C53.3294 169.775 52.8837 170.817 52.4427 171.661C51.6322 173.153 50.7067 174.579 49.6746 175.924C48.8442 177.005 47.8965 178.071 46.6297 178.559C45.363 179.046 44.054 178.99 43.3831 178.085" fill="#00378F"/>
<path d="M41.309 194.61C41.2654 194.431 41.2402 194.249 41.234 194.065C41.1964 193.667 41.1495 193.169 41.0885 192.577C41.0161 191.846 40.9065 191.118 40.7601 190.398C40.566 189.521 40.3041 188.661 39.9766 187.825C39.6523 186.991 39.2133 186.206 38.6723 185.495C38.2329 184.918 37.672 184.447 37.0302 184.116C36.5875 183.895 36.1122 183.747 35.6227 183.68C35.442 183.674 35.2626 183.647 35.0879 183.6C35.2689 183.582 35.4511 183.582 35.6321 183.6C36.1327 183.635 36.6226 183.764 37.0772 183.979C37.7545 184.301 38.3487 184.778 38.8131 185.371C39.3769 186.089 39.8323 186.888 40.1643 187.74C40.4964 188.588 40.7569 189.463 40.9431 190.355C41.0793 191.085 41.1748 191.822 41.2293 192.563C41.2762 193.193 41.295 193.705 41.2997 194.06C41.3216 194.243 41.3248 194.427 41.309 194.61Z" fill="#263238"/>
<path d="M41.2075 193.463C41.2014 193.38 41.2014 193.296 41.2075 193.212C41.2075 193.023 41.2075 192.781 41.2075 192.487C41.2075 191.862 41.2075 190.952 41.1747 189.834C41.1184 187.594 40.926 184.5 40.5601 181.098C40.1941 177.697 39.6921 174.636 39.2464 172.443C39.1385 171.893 39.0306 171.396 38.9321 170.96C38.8335 170.524 38.7538 170.154 38.674 169.851C38.5943 169.548 38.552 169.33 38.5051 169.145C38.4816 169.065 38.4675 168.982 38.4629 168.899C38.503 168.973 38.533 169.053 38.552 169.136C38.6036 169.316 38.674 169.548 38.7585 169.827C38.8429 170.107 38.9461 170.5 39.054 170.931C39.1619 171.362 39.2839 171.879 39.3965 172.409C40.0114 175.271 40.4734 178.163 40.7806 181.075C41.1512 184.481 41.3154 187.584 41.3295 189.83C41.3295 190.952 41.3295 191.862 41.292 192.492C41.292 192.786 41.2591 193.023 41.2497 193.212C41.2469 193.298 41.2327 193.382 41.2075 193.463Z" fill="#263238"/>
<path d="M41.1728 187.48C41.1534 187.229 41.1534 186.977 41.1728 186.726C41.2009 186.253 41.2666 185.537 41.4027 184.68C41.5666 183.675 41.7859 182.68 42.0595 181.7C42.3891 180.497 42.8014 179.32 43.2934 178.175C44.1525 176.074 45.3812 174.148 46.9201 172.49C47.1883 172.207 47.4718 171.94 47.7692 171.689C47.9006 171.58 48.0179 171.467 48.1352 171.381L48.4683 171.149C48.6659 170.995 48.8762 170.859 49.097 170.742C48.3725 171.318 47.6832 171.938 47.0327 172.599C45.5424 174.276 44.3475 176.199 43.4998 178.284C43.0095 179.419 42.5941 180.585 42.2565 181.776C41.9375 182.87 41.7217 183.879 41.5575 184.727C41.3933 185.575 41.3135 186.272 41.2619 186.75C41.2491 186.995 41.2193 187.239 41.1728 187.48Z" fill="#263238"/>
<path d="M72.3277 48.2503L72.3652 48.3545L72.4637 48.653L72.8484 49.8279L74.2982 54.3239V54.3855H74.2325L68.0442 53.2437H68.002V53.2011L68.0864 53.2437C65.3871 55.285 62.1035 56.3842 58.7312 56.3753C57.9678 56.3616 57.206 56.2967 56.4511 56.181C55.6672 56.0635 54.8926 55.8893 54.1334 55.6599C53.7581 55.5178 53.378 55.3756 52.9933 55.2383C52.7984 55.1683 52.6087 55.0844 52.4256 54.9872L51.8673 54.7171C50.3371 53.9392 48.9414 52.917 47.734 51.6898C46.4679 50.3959 45.44 48.8847 44.6984 47.227C43.5943 44.7977 43.1254 42.1232 43.3364 39.4589C43.5474 36.7945 44.4314 34.2293 45.9039 32.0082C47.3764 29.787 49.3883 27.9842 51.7473 26.7719C54.1063 25.5596 56.7338 24.9782 59.3787 25.0834C63.2134 25.2222 66.8595 26.7979 69.6064 29.5034C72.3533 32.2089 74.0041 35.8503 74.2372 39.7179C74.415 42.3416 73.9188 44.9673 72.7968 47.3407C72.6467 47.6533 72.5247 47.8902 72.4403 48.0418L72.3042 48.2787L72.4215 48.0418C72.506 47.876 72.6232 47.6439 72.7687 47.3265C73.1861 46.4128 73.516 45.461 73.7539 44.4839C74.1375 42.9365 74.2706 41.3366 74.148 39.7463C73.9981 37.4072 73.3254 35.1329 72.1805 33.0939C71.0356 31.0549 69.4482 29.3043 67.5375 27.9733C64.9982 26.2163 61.9969 25.2658 58.9188 25.2439C55.8407 25.2219 52.8263 26.1295 50.2628 27.8502C47.2292 29.8948 45.0167 32.9645 44.0227 36.508C43.0287 40.0516 43.3182 43.8369 44.8392 47.1843C45.5737 48.8267 46.5902 50.3248 47.8419 51.6093C49.0527 52.8016 50.445 53.7901 51.9658 54.5371L52.5195 54.8071C52.6984 54.9048 52.8852 54.9872 53.0778 55.0535L54.2085 55.4751C54.9598 55.7045 55.7265 55.8787 56.5027 55.9963C57.2513 56.1119 58.0068 56.1768 58.7641 56.1905C59.492 56.1979 60.2196 56.152 60.941 56.0531C63.518 55.6962 65.9634 54.6856 68.0489 53.1158L68.1286 53.0542V53.1584L68.0864 53.1063L74.27 54.2765L74.2278 54.3286C73.6179 52.3767 73.1393 50.856 72.8203 49.8232L72.4543 48.6435C72.4168 48.5109 72.384 48.4114 72.3652 48.3403L72.3371 48.2313L72.3277 48.2503Z" fill="#079F07"/>
<path d="M57.4091 46.279L52.0371 40.4423L53.7777 38.8126L57.4888 42.8395L65.277 35.103L66.9425 36.8086L57.4091 46.279Z" fill="#079F07"/>
</svg>
