<svg width="30" height="30" viewBox="0 0 30 30" fill="none" xmlns="http://www.w3.org/2000/svg">
<path d="M23.5713 3.75H6.42875C5.7185 3.75066 5.03754 4.0331 4.53532 4.53532C4.0331 5.03754 3.75066 5.7185 3.75 6.42875V23.5713C3.75 25.05 4.95125 26.25 6.42875 26.25H23.5713C24.2815 26.2493 24.9625 25.9669 25.4647 25.4647C25.9669 24.9625 26.2493 24.2815 26.25 23.5713V6.42875C26.2493 5.7185 25.9669 5.03754 25.4647 4.53532C24.9625 4.0331 24.2815 3.75066 23.5713 3.75ZM21.4313 13.5662C20.6428 13.6428 19.8495 13.4813 19.1537 13.1025C18.5669 12.7861 18.0685 12.3281 17.7038 11.77V17.95C17.7038 18.8534 17.4359 19.7364 16.934 20.4876C16.4321 21.2387 15.7188 21.8241 14.8842 22.1698C14.0496 22.5155 13.1312 22.606 12.2452 22.4297C11.3592 22.2535 10.5453 21.8185 9.90654 21.1797C9.26776 20.5409 8.83275 19.7271 8.65651 18.8411C8.48028 17.9551 8.57073 17.0367 8.91643 16.2021C9.26213 15.3675 9.84756 14.6541 10.5987 14.1523C11.3498 13.6504 12.2329 13.3825 13.1362 13.3825C13.2312 13.3825 13.3238 13.3912 13.4175 13.3962V15.6475C13.3238 15.6362 13.2325 15.6187 13.1362 15.6187C12.518 15.6187 11.925 15.8644 11.4878 16.3016C11.0506 16.7388 10.805 17.3317 10.805 17.95C10.805 18.5683 11.0506 19.1612 11.4878 19.5984C11.925 20.0356 12.518 20.2812 13.1362 20.2812C14.4237 20.2812 15.5613 19.2675 15.5613 17.98L15.5837 7.4825H17.7375C17.8361 8.41804 18.2602 9.2892 18.9358 9.94379C19.6114 10.5984 20.4956 10.9948 21.4338 11.0637V13.5662" fill="#3D3D3D"/>
</svg>
