<svg width="20" height="20" viewBox="0 0 20 20" fill="none" xmlns="http://www.w3.org/2000/svg">
<path d="M16.3485 17.7087C16.3485 14.707 13.0019 12.267 10.0002 12.267C6.99852 12.267 3.65186 14.707 3.65186 17.7087M10.0002 9.54699C10.9623 9.54699 11.8849 9.16481 12.5652 8.48452C13.2455 7.80423 13.6277 6.88157 13.6277 5.91949C13.6277 4.95742 13.2455 4.03475 12.5652 3.35446C11.8849 2.67417 10.9623 2.29199 10.0002 2.29199C9.03812 2.29199 8.11545 2.67417 7.43516 3.35446C6.75487 4.03475 6.37269 4.95742 6.37269 5.91949C6.37269 6.88157 6.75487 7.80423 7.43516 8.48452C8.11545 9.16481 9.03812 9.54699 10.0002 9.54699Z" stroke="#191919" stroke-width="1.5" stroke-linecap="round" stroke-linejoin="round"/>
</svg>
