<svg width="28" height="28" viewBox="0 0 28 28" fill="none" xmlns="http://www.w3.org/2000/svg">
<path d="M22.8876 24.7916C22.8876 20.5893 18.2023 17.1733 14 17.1733C9.79764 17.1733 5.1123 20.5893 5.1123 24.7916M14 13.3653C15.3469 13.3653 16.6386 12.8302 17.591 11.8778C18.5434 10.9254 19.0785 9.63365 19.0785 8.28675C19.0785 6.93985 18.5434 5.64811 17.591 4.69571C16.6386 3.74331 15.3469 3.20825 14 3.20825C12.6531 3.20825 11.3613 3.74331 10.4089 4.69571C9.45653 5.64811 8.92147 6.93985 8.92147 8.28675C8.92147 9.63365 9.45653 10.9254 10.4089 11.8778C11.3613 12.8302 12.6531 13.3653 14 13.3653Z" stroke="#3D3D3D" stroke-width="1.5" stroke-linecap="round" stroke-linejoin="round"/>
</svg>
