<svg width="15" height="15" viewBox="0 0 15 15" fill="none" xmlns="http://www.w3.org/2000/svg">
<path d="M7.5 3.43751L7.1625 3.76251C7.20623 3.80787 7.25865 3.84396 7.31664 3.86861C7.37463 3.89325 7.43699 3.90596 7.5 3.90596C7.56301 3.90596 7.62537 3.89325 7.68336 3.86861C7.74135 3.84396 7.79377 3.80787 7.8375 3.76251L7.5 3.43751ZM5.89125 11.4513C4.94375 10.7044 3.90813 9.97501 3.08625 9.05001C2.28125 8.14251 1.71875 7.08438 1.71875 5.71063H0.78125C0.78125 7.37688 1.475 8.64813 2.38562 9.67251C3.27937 10.6788 4.41937 11.485 5.31063 12.1875L5.89125 11.4513ZM1.71875 5.71063C1.71875 4.36688 2.47812 3.23938 3.515 2.76501C4.5225 2.30438 5.87625 2.42626 7.1625 3.76251L7.8375 3.11313C6.3125 1.52751 4.54 1.26563 3.125 1.91251C1.74125 2.54563 0.78125 4.01563 0.78125 5.71063H1.71875ZM5.31063 12.1875C5.63125 12.44 5.975 12.7088 6.32312 12.9125C6.67125 13.1163 7.06875 13.2813 7.5 13.2813V12.3438C7.30625 12.3438 7.07875 12.2688 6.79625 12.1031C6.51312 11.9381 6.22 11.7106 5.89125 11.4513L5.31063 12.1875ZM9.68937 12.1875C10.5806 11.4844 11.7206 10.6794 12.6144 9.67251C13.525 8.64751 14.2188 7.37688 14.2188 5.71063H13.2812C13.2812 7.08438 12.7188 8.14251 11.9137 9.05001C11.0919 9.97501 10.0563 10.7044 9.10875 11.4513L9.68937 12.1875ZM14.2188 5.71063C14.2188 4.01563 13.2594 2.54563 11.875 1.91251C10.46 1.26563 8.68875 1.52751 7.1625 3.11251L7.8375 3.76251C9.12375 2.42688 10.4775 2.30438 11.485 2.76501C12.5219 3.23938 13.2812 4.36626 13.2812 5.71063H14.2188ZM9.10875 11.4513C8.78 11.7106 8.48688 11.9381 8.20375 12.1031C7.92063 12.2681 7.69375 12.3438 7.5 12.3438V13.2813C7.93125 13.2813 8.32875 13.1156 8.67688 12.9125C9.02563 12.7088 9.36875 12.44 9.68937 12.1875L9.10875 11.4513Z" fill="#00378F"/>
</svg>
